<svg xmlns="http://www.w3.org/2000/svg" viewBox="0 0 302.38 466.85"><title>ChickenAPI</title><path d="M114.15,423.8a.88.88,0,0,1-1-.13,1.39,1.39,0,0,1-.39-1,1.87,1.87,0,0,1,.91-1.56,26.23,26.23,0,0,1,4.33-2.52,18.83,18.83,0,0,1,8.61-1.75,41.71,41.71,0,0,1,7.83.78,72.24,72.24,0,0,1,7.83,1.94,33,33,0,0,1,15.27-3.62,32.07,32.07,0,0,1,5.76.58,24.87,24.87,0,0,1,5.95,1.87,13.63,13.63,0,0,1,4.66,3.5,8.09,8.09,0,0,1,1.87,5.43,7.57,7.57,0,0,1-.84,3.56,9.37,9.37,0,0,1-2.07,2.72,9.76,9.76,0,0,1-2.78,1.75,7.77,7.77,0,0,1-3,.64,20.42,20.42,0,0,1-5.37-.71,38.24,38.24,0,0,1-5.24-1.81c-1.72-.73-3.41-1.53-5.05-2.39s-3.23-1.64-4.78-2.33c-.44-.17-.82-.35-1.17-.52s-.73-.34-1.16-.52a23.63,23.63,0,0,0-5.31,4,29.19,29.19,0,0,0-4.27,5.44,28,28,0,0,0-2.85,6.34,22.83,22.83,0,0,0-1,6.73,17.15,17.15,0,0,0,5.69,13.07,18,18,0,0,0,6,3.56,21.08,21.08,0,0,0,7.18,1.23,23,23,0,0,0,6.15-.84,41.91,41.91,0,0,0,5.56-1.94,40.88,40.88,0,0,0,4.4-2.2c1.25-.73,2.18-1.32,2.79-1.75a.78.78,0,0,1,.9-.19,1.4,1.4,0,0,1,.78,1,2.44,2.44,0,0,1-1.17,1.81,20.31,20.31,0,0,0-1.81,1.55c-.43.26-1.27.84-2.52,1.75a30.84,30.84,0,0,1-4.72,2.72,34.23,34.23,0,0,1-6.54,2.26,23.53,23.53,0,0,1-7.83.52,25,25,0,0,1-8.48-2.52,23.94,23.94,0,0,1-11.45-12.49,23.53,23.53,0,0,1-1.68-8.93,33.56,33.56,0,0,1,3-13.79,28.38,28.38,0,0,1,8.42-10.93,36.16,36.16,0,0,0-12.3-2.46,13.35,13.35,0,0,0-4.92.78C117,422.89,115.62,423.37,114.15,423.8Zm50.22,1.68a12.22,12.22,0,0,0-3.63-.77c-1.29-.09-2.67-.13-4.14-.13q3.1,1,5.76,1.87a15,15,0,0,0,4.47.84h.25a3.16,3.16,0,0,0-1.16-1.1A9.25,9.25,0,0,0,164.37,425.48Z" transform="translate(-102.73 -26.4)" style="fill:#231f20"/><path d="M182.22,463.4a3.72,3.72,0,0,1-1.68,2,3.8,3.8,0,0,1-2.85.71,5.58,5.58,0,0,1-3.49-.78,4.32,4.32,0,0,1-1.29-1.94,14.22,14.22,0,0,1-.52-4.53,64.79,64.79,0,0,1,.45-7.12,69.32,69.32,0,0,1,1.49-8.34,63.85,63.85,0,0,1,2.59-8.35,25.25,25.25,0,0,0-3.37-.78,8,8,0,0,0-2.33.26,2.52,2.52,0,0,0-1.1.65,3.14,3.14,0,0,0-.45.71c-.08.22-.17.28-.26.19s-.28-.17-.32-.51a1.84,1.84,0,0,1,.19-1,4.61,4.61,0,0,1,3.89-1.87,13.09,13.09,0,0,1,4.52.58,39.35,39.35,0,0,1,3.18-5.44,13.51,13.51,0,0,1,4.72-4.27,3.48,3.48,0,0,1,4,.45,7.78,7.78,0,0,1,2.33,3.89,13.77,13.77,0,0,1,.39,5,5.07,5.07,0,0,1-1.81,3.75,5.23,5.23,0,0,1-2.85,1.1,12.43,12.43,0,0,1-2.85-.19q-1.81,5.82-2.91,10.61a57,57,0,0,0-1.36,8.15c.17.69.35.57.52-.39a12,12,0,0,1,.39-1.81,14,14,0,0,1,.52-1.55l.51-1.55a8.82,8.82,0,0,1,2.33-3.69,13.5,13.5,0,0,1,2.72-1.88,7.43,7.43,0,0,1,3.11-.64c1.63.17,2.63.82,3,1.94a7.57,7.57,0,0,1-.13,4.14c-.26.77-.47,1.47-.64,2.07a18.82,18.82,0,0,1-.78,2.07,41.88,41.88,0,0,0-1.36,4.79,8.13,8.13,0,0,0-.19,2.59c.08.6.26,1,.51,1.1a1.86,1.86,0,0,0,.78.19,3.8,3.8,0,0,0,2.46-1.16,16.9,16.9,0,0,0,2.33-2.59,17.61,17.61,0,0,0,2.33-3.76,2.09,2.09,0,0,1,.58-.9,4.2,4.2,0,0,1,.58-.39.51.51,0,0,1,.39.13c.26.34.13,1-.39,1.94l-.77,1.55c-2.07,3.28-3.95,5.4-5.63,6.34A7.74,7.74,0,0,1,189,466a4.53,4.53,0,0,1-2.07-.52,2.77,2.77,0,0,1-.77-.52,6.85,6.85,0,0,1-1.3-1.81,7.07,7.07,0,0,1-.64-2.59,11.75,11.75,0,0,1,.38-3.68,32.3,32.3,0,0,1,1.82-5.12,14.88,14.88,0,0,1,1.16-2.33,5.78,5.78,0,0,0-1.1,1.17,6.36,6.36,0,0,0-.71,1.29,21.68,21.68,0,0,0-1.68,3.69,33.62,33.62,0,0,0-1,3.56c-.26,1.12-.45,2.07-.58,2.85A13.67,13.67,0,0,0,182.22,463.4Zm5.57-33.78a23.69,23.69,0,0,0-2.07,5.44,3,3,0,0,0,2.2-.26,2.46,2.46,0,0,0,1-1.29,4.71,4.71,0,0,0,.2-1.82c-.05-.69-.11-1.29-.2-1.81C188.69,429.11,188.31,429,187.79,429.62Z" transform="translate(-102.73 -26.4)" style="fill:#231f20"/><path d="M210.82,458.48q-3.1,4.92-5.76,6.34a8.19,8.19,0,0,1-4.85,1.17,3.24,3.24,0,0,1-1.16-.2,3.68,3.68,0,0,1-.91-.45,3,3,0,0,1-.78-.52,7.66,7.66,0,0,1-2.13-5.43c-.13-2.42.67-5.69,2.39-9.84,1-2.41,2.09-4,3.17-4.72a2.86,2.86,0,0,1,2.79-.58,3.21,3.21,0,0,1,1.68,2.07,5.24,5.24,0,0,1,0,3.23c-1,2.85-1.81,5.18-2.33,7a30.19,30.19,0,0,0-1,4.27,3.83,3.83,0,0,0,.13,2.14,1,1,0,0,0,1,.58,3.82,3.82,0,0,0,2.65-1.16,18.88,18.88,0,0,0,2.27-2.59,29.84,29.84,0,0,0,2.33-3.76,2.09,2.09,0,0,1,.58-.9,3.68,3.68,0,0,1,.58-.39,1.14,1.14,0,0,1,.52.13q.25.25.06.84t-.45,1.23Zm-3.23-27.3a2.88,2.88,0,0,1,1.75,2.52,9.14,9.14,0,0,1-.46,4.34,9,9,0,0,1-2.46,3.81,2.65,2.65,0,0,1-4.72-1.68,9.72,9.72,0,0,1,.45-4.46,9.27,9.27,0,0,1,2.46-3.69A2.89,2.89,0,0,1,207.59,431.18Z" transform="translate(-102.73 -26.4)" style="fill:#231f20"/><path d="M206.81,461.2a14.41,14.41,0,0,1,.52-6.73,16.69,16.69,0,0,1,2.78-5.11A14.22,14.22,0,0,1,214,446a15.05,15.05,0,0,1,3.68-1.62,7.38,7.38,0,0,1,4.21-.07,5.8,5.8,0,0,1,3.3,2.65,1.81,1.81,0,0,1-.19,2.21,3,3,0,0,1-1.75,1,1,1,0,0,1-.91-.39,1.37,1.37,0,0,1-.26-.52c-.51-1.12-1.1-1.68-1.74-1.68a2.88,2.88,0,0,0-1.94.91,11.41,11.41,0,0,0-2.79,4.4c-1.21,3-1.66,5.17-1.36,6.47a3.79,3.79,0,0,0,1.62,2.59,5.67,5.67,0,0,0,3.63.13,25.89,25.89,0,0,0,3-1.43q2-1,5.05-5.3c.34-.43.67-.5,1-.2a.82.82,0,0,1,.06,1.1,24.47,24.47,0,0,1-6.47,6.41,16.63,16.63,0,0,1-8.8,3.3,5.87,5.87,0,0,1-3.49-.45,5.2,5.2,0,0,1-1.94-1.75A6.92,6.92,0,0,1,206.81,461.2Z" transform="translate(-102.73 -26.4)" style="fill:#231f20"/><path d="M239,451.37a14.69,14.69,0,0,0-1.56,3.68q-.78,2.54-1.68,5a36.85,36.85,0,0,1-1.88,4.33c-.64,1.25-1.36,1.88-2.13,1.88q-2.72,0-3.63-.84a4.77,4.77,0,0,1-1.29-2,14.52,14.52,0,0,1-.52-4.53,62.62,62.62,0,0,1,.46-7.12,69.23,69.23,0,0,1,1.48-8.34,67,67,0,0,1,2.59-8.35,25.47,25.47,0,0,0-3.36-.78,7.92,7.92,0,0,0-2.33.26,2.4,2.4,0,0,0-1.1.65,2.56,2.56,0,0,0-.45.71c-.09.22-.18.28-.26.19s-.28-.17-.33-.51a1.85,1.85,0,0,1,.2-1,4.51,4.51,0,0,1,3.81-1.87,14,14,0,0,1,4.6.58,39.26,39.26,0,0,1,3.17-5.44,13.6,13.6,0,0,1,4.72-4.27,3.36,3.36,0,0,1,2.91-.39,4.31,4.31,0,0,1,2,1.81,10.56,10.56,0,0,1,1.17,2.85,20.57,20.57,0,0,1,.51,2.85c0,.78,0,1.7-.06,2.78a4.81,4.81,0,0,1-1.62,3.17,5.23,5.23,0,0,1-2.85,1.1,12.34,12.34,0,0,1-2.84-.19q-1.82,5.82-2.92,10.61a56.84,56.84,0,0,0-1.35,8.15,27.75,27.75,0,0,1,3.1-8,6.45,6.45,0,0,1,5.83-3.49,4.86,4.86,0,0,1,2.84.9,6.13,6.13,0,0,1,2,2.4,6,6,0,0,1,.45,3.43,8.73,8.73,0,0,1-1.81,4,10.38,10.38,0,0,1-1.94,1.94,5.71,5.71,0,0,1-1.94.9l.51,1.56c.18.51.35,1,.52,1.55.86,1.47,1.73,2.12,2.59,1.94a5,5,0,0,0,2.72-2.2,18.39,18.39,0,0,0,1.42-2.2c.43-.78.91-1.59,1.43-2.46q.51-1.43,1.29-1.29t0,1.68c-.43.86-.93,1.79-1.49,2.78a20.76,20.76,0,0,1-1.94,2.85,14.66,14.66,0,0,1-2.33,2.33,4.85,4.85,0,0,1-2.52,1.1,4.45,4.45,0,0,1-2.91-.39,5.68,5.68,0,0,1-1.88-1.81,10.52,10.52,0,0,1-1.23-2.52c-.3-.91-.58-1.79-.84-2.66a1.66,1.66,0,0,1-1.49-1.74,2.43,2.43,0,0,1,1.1-2.27,2.67,2.67,0,0,1,2.39-.52,3.52,3.52,0,0,1,1.49,1,19.82,19.82,0,0,0,1.43-1.62,2.83,2.83,0,0,0,.51-2.39,4.26,4.26,0,0,0-.77-2,1.07,1.07,0,0,0-1.17-.39,4,4,0,0,0-1.42.91A8.15,8.15,0,0,0,239,451.37Zm.38,4.91a1.12,1.12,0,0,0,.78-.39l.26-.25a6.12,6.12,0,0,0-1,.13c-.48.08-.71.21-.71.38S239.08,456.28,239.42,456.28Zm2.33-26.66a24.66,24.66,0,0,0-2.07,5.44,2.94,2.94,0,0,0,2.2-.26,2.53,2.53,0,0,0,1-1.29,4.93,4.93,0,0,0,.19-1.82c0-.69-.11-1.29-.19-1.81C242.66,429.11,242.27,429,241.75,429.62Z" transform="translate(-102.73 -26.4)" style="fill:#231f20"/><path d="M271.65,456.15a19.55,19.55,0,0,1-6.47,6.67,19.09,19.09,0,0,1-8.8,3.17,5.89,5.89,0,0,1-3.5-.45,5.2,5.2,0,0,1-1.94-1.75,8.38,8.38,0,0,1-1.16-2.72,11.79,11.79,0,0,1,.45-6.4,18.63,18.63,0,0,1,2.85-5.12A15.58,15.58,0,0,1,257,446a13,13,0,0,1,3.69-1.75,8.87,8.87,0,0,1,4.14-.07,4.82,4.82,0,0,1,3.36,2.66,6,6,0,0,1-.65,6.6,11.65,11.65,0,0,1-2.65,2.78,7.58,7.58,0,0,1-2.72,1.29,7.67,7.67,0,0,1-2.58.2,9.21,9.21,0,0,1-2.27-.52c-.34,2.59,0,4.16,1.1,4.72a4.69,4.69,0,0,0,3.95-.06,21.29,21.29,0,0,0,8.28-6.47c.43-.43.82-.59,1.17-.46S272.08,455.46,271.65,456.15ZM261.94,448a6.84,6.84,0,0,0-2.85,3.5q-.9,2.33-1.55,4.52a6.86,6.86,0,0,0,4-.13,5.44,5.44,0,0,0,3.37-2.45,5.25,5.25,0,0,0,.71-3.17,3.43,3.43,0,0,0-1.23-2.33A2,2,0,0,0,261.94,448Z" transform="translate(-102.73 -26.4)" style="fill:#231f20"/><path d="M296.49,454.73a.75.75,0,0,1,.13.78,7.53,7.53,0,0,1-.39,1.16c-.25.43-.56.95-.9,1.55q-3,5.05-5.63,6.54a8.1,8.1,0,0,1-4.85,1.23,3.88,3.88,0,0,1-3.18-1.55,7.21,7.21,0,0,1-1.16-3.37,14.38,14.38,0,0,1,.19-4,26.83,26.83,0,0,1,.91-3.62c.26-.87.26-1.32,0-1.36s-.52.19-.78.71a28,28,0,0,0-2.13,7,26.32,26.32,0,0,1-.71,3.82,3.56,3.56,0,0,1-1.69,2.39,4.69,4.69,0,0,1-2.07.59,3,3,0,0,1-2.46-1.17,3.2,3.2,0,0,1-.77-1.29,17.49,17.49,0,0,1-1.49-6.28,22.15,22.15,0,0,1,1.36-8.86,8.68,8.68,0,0,1,2.26-3.43,7.22,7.22,0,0,1,2.91-1.75,3,3,0,0,1,2.34.13q.9.51.51,2.07-.64,2.71-1.16,5.18t-.78,4.14c-.17,1.12-.28,1.9-.32,2.33s0,.38.19-.13l1.68-5.05a12.38,12.38,0,0,1,2.27-4.4,10.23,10.23,0,0,1,2.78-2.33,7.11,7.11,0,0,1,4.53-.91,2.32,2.32,0,0,1,1.75,1.82q.45,1.55-.58,4.79a64.43,64.43,0,0,0-2.14,6.72,14.47,14.47,0,0,0-.52,3.69c0,.82.24,1.32.58,1.49a1.62,1.62,0,0,0,1.3,0A4.62,4.62,0,0,0,290.6,462a25.64,25.64,0,0,0,2.14-2.59,26.56,26.56,0,0,0,2.2-3.5C295.54,454.86,296.06,454.47,296.49,454.73Z" transform="translate(-102.73 -26.4)" style="fill:#231f20"/><path d="M325.87,472.85a34.29,34.29,0,0,1-11.07-2.07,25,25,0,0,1-10.54-7.12,17.45,17.45,0,0,1-4-5.63,26.59,26.59,0,0,1-2-6.66,30.06,30.06,0,0,1,1-13.85A31.1,31.1,0,0,1,327.1,416a29.15,29.15,0,0,1,10.68,1.42,25.45,25.45,0,0,1,5.63,2.91,16.85,16.85,0,0,1,3.55,3.3,11.14,11.14,0,0,1,1.82,3.24,8.85,8.85,0,0,1,.51,2.71c0,1.47-.38,2.2-1.16,2.2H348a1.41,1.41,0,0,1-1.42-.9,15.52,15.52,0,0,1-.78-2.72,6.07,6.07,0,0,0-1.36-2.14,11.46,11.46,0,0,0-3.17-2.32,23.64,23.64,0,0,0-4.92-1.88,24.51,24.51,0,0,0-6.47-.78,22.09,22.09,0,0,0-6.92,1.17,25.59,25.59,0,0,0-6.8,3.43,27.91,27.91,0,0,0-5.76,5.43,20.82,20.82,0,0,0-3.68,7.06,27.47,27.47,0,0,0-1.17,8.21,15.31,15.31,0,0,0,2.07,8,16.68,16.68,0,0,0,8.54,7.7,29.34,29.34,0,0,0,11.13,2.27,24.79,24.79,0,0,0,6.41-.72c1.77-.47,2.91-.79,3.43-1a9.77,9.77,0,0,0,1.42-.58c.43-.21.86-.41,1.3-.58a7.87,7.87,0,0,1-.2-1.42c0-.61-.06-1.38-.06-2.33a23.44,23.44,0,0,1,.45-4.92c.3-1.38.63-2.63,1-3.75a17.42,17.42,0,0,1,1.55-3.69A16.3,16.3,0,0,1,345,442a15.63,15.63,0,0,1,3-2.46,5.69,5.69,0,0,1,3-1,3.5,3.5,0,0,1,3.49,1.88,10.46,10.46,0,0,1,1,3.95,25.37,25.37,0,0,1-.19,6.08,23.13,23.13,0,0,1-.71,3.49,20.81,20.81,0,0,1-2.14,5.7,26.59,26.59,0,0,1-3.3,4.79,3.52,3.52,0,0,0-.71.64,3.1,3.1,0,0,1-.71.65,2.12,2.12,0,0,0,.78,2.52A4.57,4.57,0,0,0,351,469a6.52,6.52,0,0,0,1.16-.13c.43-.09.65.21.65.9a1.51,1.51,0,0,1-.65,1.17,3.35,3.35,0,0,1-2.07.51,10.52,10.52,0,0,1-3.49-.58,5,5,0,0,1-2.72-2.39,25.38,25.38,0,0,1-3.11,1.55,20.52,20.52,0,0,1-2.33.78,27.09,27.09,0,0,1-5.76,1.62,32.26,32.26,0,0,1-6.66.45Zm20.19-21.35a13.42,13.42,0,0,0-.71,2.84q-.19,1.43-.33,2.85a12.85,12.85,0,0,0,1.43-2.59,23.28,23.28,0,0,0,1.35-4,39.28,39.28,0,0,0,.85-4.07h-.13A11.58,11.58,0,0,0,347,449,20.9,20.9,0,0,0,346.06,451.5Z" transform="translate(-102.73 -26.4)" style="fill:#231f20"/><path d="M381.77,454.6c.52.17.65.52.39,1a9.1,9.1,0,0,1-2.52,2.33,14.18,14.18,0,0,1-4.08,1.94,13.79,13.79,0,0,1-3.3,4.27,7.56,7.56,0,0,1-3.69,1.81,9.7,9.7,0,0,1-4.85.06,12.68,12.68,0,0,1-2.52-1,105.49,105.49,0,0,1-3.37,10.55q-1.8,4.72-3.62,6.28a5.27,5.27,0,0,1-1.81.84,16.88,16.88,0,0,1-2.2.45,4.92,4.92,0,0,1-1.82-.06c-.51-.13-.73-.37-.64-.72a9.71,9.71,0,0,1,.77-1.68,19.19,19.19,0,0,0,.78-1.81,25.16,25.16,0,0,1,1-2.33A114.53,114.53,0,0,0,354.08,465a135.35,135.35,0,0,0,3.62-18.44,3.74,3.74,0,0,1,.91-2.07,6.4,6.4,0,0,1,5.31-2.2c.6,0,.94.15,1,.45a8.66,8.66,0,0,1,0,2.26,22.35,22.35,0,0,1-.26,3c-.17,1.21-.39,2.55-.65,4a22.85,22.85,0,0,0,.33,8.22,3.27,3.27,0,0,0,3.82,2.52,3.51,3.51,0,0,0,2.13-.9,4.15,4.15,0,0,0,1.1-1.43,7.48,7.48,0,0,1-4.66-1.29,6.32,6.32,0,0,1-2.26-3,8.74,8.74,0,0,1-.39-3.69A10.74,10.74,0,0,1,365,449a8.69,8.69,0,0,1,4.72-4.79,6.43,6.43,0,0,1,5.44.06,6.7,6.7,0,0,1,3.23,4.73q.84,3.49-1.87,9a9.4,9.4,0,0,0,2.07-1.09,11.4,11.4,0,0,0,2.2-2.14A1.32,1.32,0,0,1,381.77,454.6Zm-9.57,4.27a16.66,16.66,0,0,0,1.42-5.17,4.41,4.41,0,0,0-1.16-3.89,1.84,1.84,0,0,0-1.62-.64,2.44,2.44,0,0,0-1.49.84,6.52,6.52,0,0,0-1.1,1.68,4.46,4.46,0,0,0-.45,1.88,7.32,7.32,0,0,0,.32,2.52,4.39,4.39,0,0,0,1.49,1.75A5.15,5.15,0,0,0,372.2,458.87Z" transform="translate(-102.73 -26.4)" style="fill:#231f20"/><path d="M393.81,458.48q-3.1,4.92-5.76,6.34A8.22,8.22,0,0,1,383.2,466a3.3,3.3,0,0,1-1.17-.2,3.61,3.61,0,0,1-.9-.45,2.69,2.69,0,0,1-.78-.52,7.62,7.62,0,0,1-2.14-5.43c-.13-2.42.67-5.69,2.4-9.84,1-2.41,2.09-4,3.17-4.72a2.85,2.85,0,0,1,2.78-.58,3.16,3.16,0,0,1,1.68,2.07,5.1,5.1,0,0,1,0,3.23q-1.55,4.27-2.33,7a31.68,31.68,0,0,0-1,4.27,3.93,3.93,0,0,0,.13,2.14,1,1,0,0,0,1,.58,3.84,3.84,0,0,0,2.66-1.16,18.82,18.82,0,0,0,2.26-2.59,28.73,28.73,0,0,0,2.33-3.76,2.18,2.18,0,0,1,.58-.9,3.72,3.72,0,0,1,.59-.39,1.07,1.07,0,0,1,.51.13c.18.17.2.45.07.84s-.28.8-.46,1.23Zm-3.24-27.3a2.88,2.88,0,0,1,1.75,2.52,9.55,9.55,0,0,1-2.91,8.15,2.65,2.65,0,0,1-4.73-1.68,9.73,9.73,0,0,1,.46-4.46A9.07,9.07,0,0,1,387.6,432,2.87,2.87,0,0,1,390.57,431.18Z" transform="translate(-102.73 -26.4)" style="fill:#231f20"/><path d="M148.17,482.83c-1.11,0-2.24-.05-3.37-.16l-.21,0a35,35,0,0,1-11.87-3.54,33.92,33.92,0,0,1-16.19-17.64,33.59,33.59,0,0,1-2.41-12.69,43.16,43.16,0,0,1,2.82-15.37,11,11,0,0,1-3.26.49,10.75,10.75,0,0,1-7.63-3.15,11.41,11.41,0,0,1-3.32-8.11,11.8,11.8,0,0,1,4.73-9.42,33.93,33.93,0,0,1,6-3.57,28.78,28.78,0,0,1,13.15-2.84,52.3,52.3,0,0,1,9.7.95c1.76.34,3.51.73,5.22,1.17a42.2,42.2,0,0,1,15.51-3h.58a41.67,41.67,0,0,1,7.48.74,35.12,35.12,0,0,1,8.36,2.64,23.53,23.53,0,0,1,8,6.08,18.07,18.07,0,0,1,4.27,11.92,17.59,17.59,0,0,1-2,8.17,19.42,19.42,0,0,1-4.28,5.56,19.76,19.76,0,0,1-5.61,3.53,17.58,17.58,0,0,1-6.82,1.41,30.77,30.77,0,0,1-8-1,50,50,0,0,1-6.56-2.27c-2-.83-3.92-1.76-5.79-2.75l-1.19-.61a20.14,20.14,0,0,0-2.3,3.05,18.05,18.05,0,0,0-1.83,4.08,12.72,12.72,0,0,0-.59,3.79,7.31,7.31,0,0,0,.6,3.18,7.42,7.42,0,0,0,1.78,2.45,7.83,7.83,0,0,0,2.71,1.59,11.11,11.11,0,0,0,3.8.64,13.05,13.05,0,0,0,3.49-.48,32,32,0,0,0,4.23-1.47,30.3,30.3,0,0,0,3.33-1.66c1-.57,1.52-.91,1.8-1.1a10.69,10.69,0,0,1,6.62-2.28,10.89,10.89,0,0,1,3.82.69,11.46,11.46,0,0,1,6.77,7.16,10.15,10.15,0,0,1,.52,3.19,12.12,12.12,0,0,1-5,9.71c-.63.5-.86.72-.87.73a10,10,0,0,1-1.93,1.5h0s-.42.27-1.79,1.26a39.63,39.63,0,0,1-6.28,3.65,44.39,44.39,0,0,1-8.46,3A32.36,32.36,0,0,1,148.17,482.83Z" transform="translate(-102.73 -26.4)" style="fill:#f7941d"/><path d="M178.29,476.17c-.43,0-.87,0-1.3-.06a13.69,13.69,0,0,1-13.53-9.43,23.37,23.37,0,0,1-1.07-7.81,75.12,75.12,0,0,1,.51-8.24c.23-2,.55-4.06,1-6.16a10.61,10.61,0,0,1-4.7-7.62,11.83,11.83,0,0,1,1.15-6.75,10.74,10.74,0,0,1,.83-1.38,14.45,14.45,0,0,1,11.1-6l.39-.57a23.45,23.45,0,0,1,8.16-7.37c.24-.13.48-.25.73-.36a14.41,14.41,0,0,1,5.86-1.28,13.18,13.18,0,0,1,8.83,3.38,17.68,17.68,0,0,1,5.36,8.76,23.8,23.8,0,0,1,.69,8.59,16.63,16.63,0,0,1-1.49,5.52,12.47,12.47,0,0,1,2.39,4.39,15.83,15.83,0,0,1,.41,1.68,10.4,10.4,0,0,1,3.88,2.4,9.41,9.41,0,0,1,1,1.16c1.26,1.68,3.81,6.25.48,12.53l-.71,1.43c-.15.29-.31.58-.49.86-3,4.81-5.95,7.9-9.17,9.72a18.14,18.14,0,0,1-9,2.49c-.43,0-.87,0-1.3,0a14.38,14.38,0,0,1-4.59-1A13.53,13.53,0,0,1,178.29,476.17Z" transform="translate(-102.73 -26.4)" style="fill:#f7941d"/><path d="M200.9,476c-.43,0-.87,0-1.3,0a13.22,13.22,0,0,1-4.07-.82,14.82,14.82,0,0,1-2.37-1.14,12.6,12.6,0,0,1-2.72-2,17.46,17.46,0,0,1-5.2-12.12c-.21-4,.79-8.54,3.15-14.21a.42.42,0,0,0,0-.1,26,26,0,0,1,3.2-5.66,20.18,20.18,0,0,1,1-7.25,6.26,6.26,0,0,1,.21-.61,19.13,19.13,0,0,1,5.2-7.6,13.15,13.15,0,0,1,8.76-3.46,12.35,12.35,0,0,1,4.2.74,12.74,12.74,0,0,1,8.22,10.33,19.06,19.06,0,0,1-.84,9.1l-.1.3a21.46,21.46,0,0,1-2.13,4.26l.24.12a9.89,9.89,0,0,1,2.72,1.95,10.74,10.74,0,0,1,2.44,11c-.19.57-.41,1.16-.65,1.78-.11.26-.22.51-.35.76l-.77,1.56c-.15.29-.31.58-.49.86-3.08,4.88-6.09,8-9.49,9.82A18.78,18.78,0,0,1,200.9,476Z" transform="translate(-102.73 -26.4)" style="fill:#f7941d"/><path d="M212.18,476.06a14.71,14.71,0,0,1-7.2-1.76,15,15,0,0,1-5.53-5.08A16.78,16.78,0,0,1,197,463c0-.14,0-.29-.07-.44a24.39,24.39,0,0,1,1-11.37,26.61,26.61,0,0,1,4.49-8.16,24.12,24.12,0,0,1,6.63-5.7,24.66,24.66,0,0,1,6.06-2.6A17.88,17.88,0,0,1,220,434a16.84,16.84,0,0,1,4.73.67,15.69,15.69,0,0,1,9,7,7,7,0,0,1,.48.84,12.4,12.4,0,0,1,1.34,5.53l.06.07a10.75,10.75,0,0,1,1.59,13.33l-.21.33a34.73,34.73,0,0,1-9,9.08A26.69,26.69,0,0,1,214.14,476C213.47,476,212.81,476.06,212.18,476.06Z" transform="translate(-102.73 -26.4)" style="fill:#f7941d"/><path d="M231.79,476.25c-1.64,0-6.65,0-10.43-3.51a14.76,14.76,0,0,1-3.94-6.06,23.37,23.37,0,0,1-1.07-7.81,75.32,75.32,0,0,1,.52-8.24c.23-2,.55-4.07,1-6.16a10.61,10.61,0,0,1-4.7-7.62,11.92,11.92,0,0,1,1.16-6.75,10.67,10.67,0,0,1,.82-1.38,14.44,14.44,0,0,1,11.11-6l.38-.56a23.57,23.57,0,0,1,8.17-7.37,14.09,14.09,0,0,1,6.74-1.79,12.41,12.41,0,0,1,4.82,1,14.33,14.33,0,0,1,6.71,5.88,20.53,20.53,0,0,1,2.3,5.57,30.24,30.24,0,0,1,.76,4.26,8.71,8.71,0,0,1,0,1c0,.88,0,1.94-.07,3.16a13.8,13.8,0,0,1-1.56,5.83,16,16,0,0,1,2.79,4.1,15,15,0,0,1,1,2.67,10.3,10.3,0,0,1,4.49,4.51c1.13,2.23,2,5.86-.3,10.47-.52,1-1.09,2.1-1.73,3.22a31.44,31.44,0,0,1-2.87,4.23,25.08,25.08,0,0,1-3.9,3.88,15.07,15.07,0,0,1-7.51,3.19,18.44,18.44,0,0,1-2.2.14,13.66,13.66,0,0,1-6.44-1.53A11.72,11.72,0,0,1,231.79,476.25Z" transform="translate(-102.73 -26.4)" style="fill:#f7941d"/><path d="M255.27,476.06a14.71,14.71,0,0,1-7.2-1.76,15,15,0,0,1-5.52-5.07,18.68,18.68,0,0,1-2.48-5.73c0-.2-.09-.41-.13-.61a21.77,21.77,0,0,1,.93-11.76,29.11,29.11,0,0,1,4.37-7.79,25.81,25.81,0,0,1,6.35-5.78,23,23,0,0,1,6.56-3,18.44,18.44,0,0,1,4.64-.59,19.49,19.49,0,0,1,4,.42,14.78,14.78,0,0,1,10.2,7.77,16.3,16.3,0,0,1,1.74,5.54,10.15,10.15,0,0,1,2.73,4.23,11,11,0,0,1-1.2,9.31,29.39,29.39,0,0,1-9.63,10,29,29,0,0,1-13.25,4.74A19.2,19.2,0,0,1,255.27,476.06Z" transform="translate(-102.73 -26.4)" style="fill:#f7941d"/><path d="M274.23,476.64a13.64,13.64,0,0,1-12.44-8.54,27.61,27.61,0,0,1-2.25-9.38,32,32,0,0,1,1.87-12.92c0-.09.06-.19.1-.28a18.47,18.47,0,0,1,4.88-7.29,17,17,0,0,1,7-4,14.42,14.42,0,0,1,3.75-.52,12.46,12.46,0,0,1,6.1,1.58,15.72,15.72,0,0,1,1.88-.32,20.75,20.75,0,0,1,2.14-.12,13.89,13.89,0,0,1,2.72.25,12.26,12.26,0,0,1,9.41,8.81c.13.45.24.91.33,1.37a10.41,10.41,0,0,1,1.88.89,9.83,9.83,0,0,1,2,1.55,10.73,10.73,0,0,1,2.73,10.21,21.29,21.29,0,0,1-.8,2.46,10.69,10.69,0,0,1-.71,1.44l-.81,1.37s-.05.08-.07.13c-3,5-5.94,8.26-9.35,10.17a18.48,18.48,0,0,1-9.08,2.55c-.51,0-1,0-1.52-.08a15.09,15.09,0,0,1-3.69-.72A14.42,14.42,0,0,1,274.23,476.64Z" transform="translate(-102.73 -26.4)" style="fill:#f7941d"/><path d="M327.21,482.87l-1.39,0a44.47,44.47,0,0,1-14.27-2.62,34.76,34.76,0,0,1-14.47-9.6,27.58,27.58,0,0,1-6-8.51,36.77,36.77,0,0,1-2.74-9.11,40.82,40.82,0,0,1,38.26-47c.65,0,1.3-.05,1.94-.05a38.9,38.9,0,0,1,12.35,2l.44.16a35.59,35.59,0,0,1,7.84,4.1,26.56,26.56,0,0,1,5.67,5.34,21.17,21.17,0,0,1,3.38,6.17,18.41,18.41,0,0,1,1,5.88c0,.5,0,1-.06,1.44a13,13,0,0,1,4.24,5,20.66,20.66,0,0,1,2,7.59,38.85,38.85,0,0,1-1.24,13,31.39,31.39,0,0,1-2.86,7.55,11.38,11.38,0,0,1,1.41,5.55,11.5,11.5,0,0,1-4.39,9,13,13,0,0,1-8.33,2.71,20.63,20.63,0,0,1-6.76-1.13l-.79-.29-.9.27a37.71,37.71,0,0,1-7.22,2A41.15,41.15,0,0,1,327.21,482.87Zm2.67-51.79a12.45,12.45,0,0,0-3.81.67,16,16,0,0,0-4.17,2.12,17.2,17.2,0,0,0-3.67,3.47,11,11,0,0,0-1.94,3.7,18,18,0,0,0-.74,5.34,5.26,5.26,0,0,0,.67,2.86c.06.1.12.2.17.3a6.76,6.76,0,0,0,3.54,3.24,19.23,19.23,0,0,0,7.36,1.53,21.58,21.58,0,0,0,2.45-.13,28.45,28.45,0,0,1,.53-3.53c.35-1.61.74-3.11,1.15-4.46a28.19,28.19,0,0,1,2.39-5.68,26.15,26.15,0,0,1,3.77-5.21l-.2-.45a19.3,19.3,0,0,1-.8-2.28h0a14.77,14.77,0,0,0-2.85-1.06A14.94,14.94,0,0,0,329.88,431.08Z" transform="translate(-102.73 -26.4)" style="fill:#f7941d"/><path d="M349.41,493.25a14.51,14.51,0,0,1-3.46-.41A10.57,10.57,0,0,1,338,480c.07-.28.14-.54.23-.81a20.26,20.26,0,0,1,1.38-3.09c.07-.15.16-.38.29-.71a31.25,31.25,0,0,1,1.27-2.92,106.26,106.26,0,0,0,3.25-10.19,125.06,125.06,0,0,0,3.33-17,13.84,13.84,0,0,1,3.19-7.27,16.41,16.41,0,0,1,12.95-5.74,11.58,11.58,0,0,1,6,1.58,16.37,16.37,0,0,1,2.6-.21,15.59,15.59,0,0,1,7.19,1.73c3,1.53,6.81,4.71,8.4,11.28,0,0,0,.06,0,.08a10.45,10.45,0,0,1,3.42,4.39,10.82,10.82,0,0,1-.39,8.95c-.15.28-.3.56-.47.83a18.12,18.12,0,0,1-5.32,5.26,25.56,25.56,0,0,1-3,1.78,22,22,0,0,1-3.65,3.9,17.53,17.53,0,0,1-8.25,3.95c-.72.14-1.42.26-2.11.34-.37,1.05-.74,2.06-1.11,3-1.86,4.84-3.91,8.11-6.46,10.3l-.26.21a14.86,14.86,0,0,1-5.37,2.66,24.5,24.5,0,0,1-3.64.74A15.93,15.93,0,0,1,349.41,493.25Z" transform="translate(-102.73 -26.4)" style="fill:#f7941d"/><path d="M383.88,476c-.43,0-.87,0-1.3,0a13.21,13.21,0,0,1-4.06-.82,15.36,15.36,0,0,1-2.38-1.14,12.53,12.53,0,0,1-2.71-2,17.42,17.42,0,0,1-5.2-12.12c-.22-4,.78-8.54,3.15-14.21a.42.42,0,0,1,0-.1,26,26,0,0,1,3.2-5.66,20.38,20.38,0,0,1,1-7.25c.07-.21.14-.41.22-.61a19.08,19.08,0,0,1,5.19-7.6,13.17,13.17,0,0,1,8.77-3.46,12.25,12.25,0,0,1,4.19.74,12.74,12.74,0,0,1,8.22,10.33,19.06,19.06,0,0,1-.84,9.1c0,.1-.06.2-.1.3a20.43,20.43,0,0,1-2.13,4.26l.22.11a9.67,9.67,0,0,1,2.74,2,10.75,10.75,0,0,1,2.45,11c-.2.58-.41,1.17-.66,1.79-.1.26-.22.51-.34.76l-.78,1.56c-.15.29-.31.58-.49.86-3.07,4.88-6.09,8-9.48,9.81A18.72,18.72,0,0,1,383.88,476Z" transform="translate(-102.73 -26.4)" style="fill:#f7941d"/><path d="M148.17,480.83c-1,0-2.12-.05-3.19-.15h-.16a33.06,33.06,0,0,1-11.19-3.34,31.8,31.8,0,0,1-15.24-16.62,31.39,31.39,0,0,1-2.27-11.93,41.52,41.52,0,0,1,3.67-17c.25-.56.51-1.11.79-1.66-1.26.48-2.57.93-3.94,1.34a9.14,9.14,0,0,1-3,.49,8.71,8.71,0,0,1-6.21-2.57,9.36,9.36,0,0,1-2.74-6.69,9.81,9.81,0,0,1,4-7.85,33,33,0,0,1,5.64-3.36,26.73,26.73,0,0,1,12.24-2.62,49.86,49.86,0,0,1,9.32.92c1.95.37,3.86.81,5.73,1.3A40.35,40.35,0,0,1,157,407.9h.56a39.73,39.73,0,0,1,7.14.71,32.76,32.76,0,0,1,7.88,2.49,21.58,21.58,0,0,1,7.37,5.55,16.11,16.11,0,0,1,3.79,10.63,15.49,15.49,0,0,1-1.74,7.25,17.5,17.5,0,0,1-3.83,5,18,18,0,0,1-5.05,3.18,15.68,15.68,0,0,1-6,1.25,28.92,28.92,0,0,1-7.45-1,47.37,47.37,0,0,1-6.29-2.18c-1.92-.81-3.83-1.72-5.65-2.68-.85-.44-1.69-.87-2.52-1.26l-.51.49a21.54,21.54,0,0,0-3.1,3.94,20.3,20.3,0,0,0-2,4.53,14.63,14.63,0,0,0-.68,4.38,9.17,9.17,0,0,0,3,7.12,10,10,0,0,0,3.37,2,13.09,13.09,0,0,0,4.48.76,14.93,14.93,0,0,0,4-.55,34.08,34.08,0,0,0,4.5-1.57,34.56,34.56,0,0,0,3.55-1.76c1.06-.63,1.65-1,2-1.21a8.72,8.72,0,0,1,5.44-1.9,8.83,8.83,0,0,1,3.12.57,9.28,9.28,0,0,1,5.57,5.92,7.88,7.88,0,0,1,.42,2.55,10.17,10.17,0,0,1-4.26,8.13,12.86,12.86,0,0,0-1.06.89,8.62,8.62,0,0,1-1.55,1.21s-.46.29-1.93,1.35a37.08,37.08,0,0,1-6,3.46,41.69,41.69,0,0,1-8.07,2.82A30.9,30.9,0,0,1,148.17,480.83Z" transform="translate(-102.73 -26.4)" style="fill:#8b5e3c"/><path d="M178.29,474.17a11.46,11.46,0,0,1-1.17-.06A11.71,11.71,0,0,1,165.35,466a21.42,21.42,0,0,1-1-7.16,73.49,73.49,0,0,1,.5-8,75.11,75.11,0,0,1,1.24-7.45,8.53,8.53,0,0,1-5-6.81,9.81,9.81,0,0,1,1-5.61,7.63,7.63,0,0,1,.66-1.1A12.56,12.56,0,0,1,173,424.67h.39c.3-.47.61-.93.93-1.4a21.48,21.48,0,0,1,7.48-6.74,6.27,6.27,0,0,1,.58-.29,12.35,12.35,0,0,1,5-1.11A11.19,11.19,0,0,1,194.9,418a15.66,15.66,0,0,1,4.75,7.78,21.64,21.64,0,0,1,.63,7.87,14.14,14.14,0,0,1-2,6.06,10.31,10.31,0,0,1,2.94,4.64,13.86,13.86,0,0,1,.52,2.67,8.4,8.4,0,0,1,4.28,2.25,8,8,0,0,1,.82.93c1,1.38,3.11,5.13.31,10.41l-.73,1.45a7.69,7.69,0,0,1-.39.69c-2.85,4.52-5.54,7.4-8.46,9a16.09,16.09,0,0,1-8,2.24c-.39,0-.78,0-1.17,0a12.33,12.33,0,0,1-4.76-1.16A11.79,11.79,0,0,1,178.29,474.17Z" transform="translate(-102.73 -26.4)" style="fill:#8b5e3c"/><path d="M200.9,474c-.39,0-.79,0-1.18,0a11.06,11.06,0,0,1-3.49-.7,11.75,11.75,0,0,1-2.08-1,10.71,10.71,0,0,1-2.32-1.68,15.46,15.46,0,0,1-4.59-10.78c-.2-3.66.79-8,3-13.34a23,23,0,0,1,3.45-5.89,18.1,18.1,0,0,1,.83-7.29c.06-.17.11-.33.18-.49a17.13,17.13,0,0,1,4.64-6.81,11.21,11.21,0,0,1,7.45-3,10.36,10.36,0,0,1,3.52.62,10.79,10.79,0,0,1,6.92,8.77,17,17,0,0,1-.76,8.14,2.25,2.25,0,0,1-.08.24,18.08,18.08,0,0,1-3,5.32q.06.42.09.84a8.83,8.83,0,0,1,2,.71,8,8,0,0,1,2.18,1.56,8.65,8.65,0,0,1,2,9c-.18.53-.38,1.09-.61,1.67-.08.2-.17.41-.27.61l-.78,1.55a7.69,7.69,0,0,1-.39.69c-2.89,4.58-5.67,7.47-8.74,9.12A16.78,16.78,0,0,1,200.9,474Z" transform="translate(-102.73 -26.4)" style="fill:#8b5e3c"/><path d="M212.18,474.06a12.83,12.83,0,0,1-6.24-1.51,13.15,13.15,0,0,1-4.81-4.41,14.92,14.92,0,0,1-2.19-5.5c0-.12,0-.23-.05-.35a22.29,22.29,0,0,1,.88-10.44,24.75,24.75,0,0,1,4.15-7.56,22.42,22.42,0,0,1,6.08-5.23,23.2,23.2,0,0,1,5.58-2.4A16.07,16.07,0,0,1,220,436a15.06,15.06,0,0,1,4.17.59,13.75,13.75,0,0,1,7.85,6.09,7.44,7.44,0,0,1,.38.68,10.29,10.29,0,0,1,1.09,5.49,8,8,0,0,1,.69.62,8.79,8.79,0,0,1,1.28,10.89,2.26,2.26,0,0,1-.16.26,32.61,32.61,0,0,1-8.53,8.55A24.73,24.73,0,0,1,214,474,15.71,15.71,0,0,1,212.18,474.06Z" transform="translate(-102.73 -26.4)" style="fill:#8b5e3c"/><path d="M231.79,474.25c-1.45,0-5.86,0-9.07-3a12.82,12.82,0,0,1-3.41-5.24,21.68,21.68,0,0,1-1-7.16,71.26,71.26,0,0,1,.51-8,74.53,74.53,0,0,1,1.23-7.45,8.5,8.5,0,0,1-5-6.81,9.8,9.8,0,0,1,1-5.61,7.63,7.63,0,0,1,.66-1.1,12.5,12.5,0,0,1,10.12-5.22h.46c.3-.47.61-.93.93-1.39a21.39,21.39,0,0,1,7.47-6.75,12.1,12.1,0,0,1,5.79-1.55,10.6,10.6,0,0,1,4.05.8,12.43,12.43,0,0,1,5.77,5.07,18.78,18.78,0,0,1,2.07,5,27.83,27.83,0,0,1,.71,4,7.32,7.32,0,0,1,0,.81c0,.86,0,1.89-.07,3.09A12.15,12.15,0,0,1,252,440a14,14,0,0,1,3.5,4.61,12.8,12.8,0,0,1,1.06,3.22,8.32,8.32,0,0,1,4.43,4c.93,1.82,1.63,4.8-.3,8.67-.5,1-1.06,2-1.68,3.13a29.56,29.56,0,0,1-2.69,3.95,22.84,22.84,0,0,1-3.59,3.57,12.63,12.63,0,0,1-6.51,2.77,14.51,14.51,0,0,1-1.95.13,11.64,11.64,0,0,1-6-1.56l-.55-.34A9.73,9.73,0,0,1,231.79,474.25Z" transform="translate(-102.73 -26.4)" style="fill:#8b5e3c"/><path d="M255.27,474.06a12.83,12.83,0,0,1-6.24-1.51,13,13,0,0,1-4.8-4.41A16.8,16.8,0,0,1,242,463c0-.16-.07-.32-.1-.48a19.72,19.72,0,0,1,.83-10.69,27.26,27.26,0,0,1,4.07-7.26,24,24,0,0,1,5.86-5.34,20.88,20.88,0,0,1,6-2.74,16.38,16.38,0,0,1,4.14-.53,17.76,17.76,0,0,1,3.6.38,12.81,12.81,0,0,1,8.83,6.74,14,14,0,0,1,1.59,5.6,8.18,8.18,0,0,1,2.75,3.88,8.85,8.85,0,0,1-1,7.65,27.38,27.38,0,0,1-9,9.3A27,27,0,0,1,257.18,474,18.06,18.06,0,0,1,255.27,474.06Z" transform="translate(-102.73 -26.4)" style="fill:#8b5e3c"/><path d="M274.23,474.64a10.89,10.89,0,0,1-8.47-3.88,11.21,11.21,0,0,1-2.13-3.45,25.45,25.45,0,0,1-2.09-8.75,30,30,0,0,1,1.76-12.11l.08-.23a16.62,16.62,0,0,1,4.36-6.52,15.26,15.26,0,0,1,6.2-3.56,12.21,12.21,0,0,1,3.23-.45,10.53,10.53,0,0,1,5.16,1.34l.62.39a13.89,13.89,0,0,1,2.41-.48c.71-.07,1.33-.11,1.93-.11h0a12.23,12.23,0,0,1,2.33.21,10.28,10.28,0,0,1,7.88,7.41,10.88,10.88,0,0,1,.43,2.38,8.39,8.39,0,0,1,2.67,1,7.59,7.59,0,0,1,1.58,1.24,8.74,8.74,0,0,1,2.21,8.32,17.59,17.59,0,0,1-.72,2.2,8.2,8.2,0,0,1-.57,1.15c-.23.39-.51.86-.82,1.41l-.06.1c-2.78,4.71-5.52,7.71-8.61,9.45a16.49,16.49,0,0,1-8.1,2.29c-.45,0-.91,0-1.35-.07a12.86,12.86,0,0,1-4-.91l-.31.16A12.48,12.48,0,0,1,274.23,474.64Z" transform="translate(-102.73 -26.4)" style="fill:#8b5e3c"/><path d="M327.21,480.87l-1.35,0a42.42,42.42,0,0,1-13.66-2.51,32.85,32.85,0,0,1-13.69-9.11A25.52,25.52,0,0,1,293,461.3a34.67,34.67,0,0,1-2.6-8.62,37.76,37.76,0,0,1-.41-8.95,36.89,36.89,0,0,1,1.65-8.65,39.14,39.14,0,0,1,35.14-27c.62,0,1.24,0,1.85,0a37,37,0,0,1,11.72,1.87l.35.12a33.11,33.11,0,0,1,7.4,3.87,24.77,24.77,0,0,1,5.25,4.93,19.07,19.07,0,0,1,3.06,5.58,16.45,16.45,0,0,1,.93,5.25,12.69,12.69,0,0,1-.22,2.45,11,11,0,0,1,4.6,4.87,18.39,18.39,0,0,1,1.81,6.86,33.3,33.3,0,0,1-.27,7.91,32.82,32.82,0,0,1-.9,4.41,29.39,29.39,0,0,1-2.83,7.37l-.41.73a9.06,9.06,0,0,1,1.72,5.52,9.52,9.52,0,0,1-3.64,7.41,11,11,0,0,1-7.08,2.27,18.57,18.57,0,0,1-6.11-1,13.16,13.16,0,0,1-1.35-.55c-.56.2-1.11.37-1.63.52a35.32,35.32,0,0,1-6.92,1.9A39.37,39.37,0,0,1,327.21,480.87Zm2.67-51.79a14.3,14.3,0,0,0-4.43.77,18,18,0,0,0-4.7,2.38,19.67,19.67,0,0,0-4.09,3.87,12.74,12.74,0,0,0-2.28,4.36,19.84,19.84,0,0,0-.83,5.92,7.42,7.42,0,0,0,.95,3.88c.05.08.1.16.14.24a8.69,8.69,0,0,0,4.54,4.13,21.16,21.16,0,0,0,8.11,1.68,16.92,16.92,0,0,0,4.33-.44h0a27.35,27.35,0,0,1,.6-4.79c.34-1.57.71-3,1.11-4.32a26.18,26.18,0,0,1,2.22-5.28,24.28,24.28,0,0,1,3.68-5l.82-.82a10.6,10.6,0,0,1-.84-1.56,18,18,0,0,1-.92-2.8,7.33,7.33,0,0,0-.79-.47,16,16,0,0,0-3.27-1.22A16.71,16.71,0,0,0,329.88,429.08Z" transform="translate(-102.73 -26.4)" style="fill:#8b5e3c"/><path d="M349.41,491.25a12.52,12.52,0,0,1-3-.35A8.6,8.6,0,0,1,340,480.5c0-.21.12-.42.19-.63a17.92,17.92,0,0,1,1.26-2.84c.09-.19.22-.49.38-.91.33-.87.73-1.79,1.23-2.81.64-1.6,1.72-4.67,3.35-10.45a129.66,129.66,0,0,0,3.39-17.28,11.8,11.8,0,0,1,2.73-6.24,14.43,14.43,0,0,1,11.42-5,9.46,9.46,0,0,1,5.52,1.69,15,15,0,0,1,3-.32,13.68,13.68,0,0,1,6.28,1.51c2.59,1.33,5.95,4.14,7.36,10,.06.26.12.53.17.8a8.56,8.56,0,0,1,3,11.25c-.12.23-.24.45-.38.67a16.19,16.19,0,0,1-4.76,4.67,21.41,21.41,0,0,1-3.22,1.84,19.84,19.84,0,0,1-3.6,3.95,15.49,15.49,0,0,1-7.33,3.52,22.68,22.68,0,0,1-3.23.44q-.74,2.19-1.5,4.2c-1.73,4.51-3.6,7.53-5.89,9.49l-.21.17a13.12,13.12,0,0,1-4.66,2.3,24.59,24.59,0,0,1-3.35.68A15.88,15.88,0,0,1,349.41,491.25Z" transform="translate(-102.73 -26.4)" style="fill:#8b5e3c"/><path d="M383.88,474c-.39,0-.78,0-1.17,0a11.28,11.28,0,0,1-3.49-.69,13,13,0,0,1-2.09-1,11,11,0,0,1-2.32-1.68,15.51,15.51,0,0,1-4.58-10.78c-.2-3.67.78-8,3-13.34a23.29,23.29,0,0,1,3.45-5.89,17.94,17.94,0,0,1,.84-7.29c.05-.17.11-.33.17-.49a17.05,17.05,0,0,1,4.65-6.81,11.2,11.2,0,0,1,7.45-3,10.26,10.26,0,0,1,3.51.62,10.79,10.79,0,0,1,6.93,8.77,17.09,17.09,0,0,1-.76,8.14l-.09.24a18.06,18.06,0,0,1-3,5.32c0,.28.06.56.08.84a9.22,9.22,0,0,1,2,.7,8.13,8.13,0,0,1,2.19,1.57,8.66,8.66,0,0,1,2,9c-.18.54-.38,1.1-.62,1.68-.08.2-.17.41-.27.61l-.78,1.55c-.12.24-.25.47-.39.7-2.88,4.56-5.66,7.46-8.74,9.11A16.75,16.75,0,0,1,383.88,474Z" transform="translate(-102.73 -26.4)" style="fill:#8b5e3c"/><path d="M114.15,423.8a.88.88,0,0,1-1-.13,1.39,1.39,0,0,1-.39-1,1.87,1.87,0,0,1,.91-1.56,26.23,26.23,0,0,1,4.33-2.52,18.83,18.83,0,0,1,8.61-1.75,41.71,41.71,0,0,1,7.83.78,72.24,72.24,0,0,1,7.83,1.94,33,33,0,0,1,15.27-3.62,32.07,32.07,0,0,1,5.76.58,24.87,24.87,0,0,1,5.95,1.87,13.63,13.63,0,0,1,4.66,3.5,8.09,8.09,0,0,1,1.87,5.43,7.57,7.57,0,0,1-.84,3.56,9.37,9.37,0,0,1-2.07,2.72,9.76,9.76,0,0,1-2.78,1.75,7.77,7.77,0,0,1-3,.64,20.42,20.42,0,0,1-5.37-.71,38.24,38.24,0,0,1-5.24-1.81c-1.72-.73-3.41-1.53-5.05-2.39s-3.23-1.64-4.78-2.33c-.44-.17-.82-.35-1.17-.52s-.73-.34-1.16-.52a23.63,23.63,0,0,0-5.31,4,29.19,29.19,0,0,0-4.27,5.44,28,28,0,0,0-2.85,6.34,22.83,22.83,0,0,0-1,6.73,17.15,17.15,0,0,0,5.69,13.07,18,18,0,0,0,6,3.56,21.08,21.08,0,0,0,7.18,1.23,23,23,0,0,0,6.15-.84,41.91,41.91,0,0,0,5.56-1.94,40.88,40.88,0,0,0,4.4-2.2c1.25-.73,2.18-1.32,2.79-1.75a.78.78,0,0,1,.9-.19,1.4,1.4,0,0,1,.78,1,2.44,2.44,0,0,1-1.17,1.81,20.31,20.31,0,0,0-1.81,1.55c-.43.26-1.27.84-2.52,1.75a30.84,30.84,0,0,1-4.72,2.72,34.23,34.23,0,0,1-6.54,2.26,23.53,23.53,0,0,1-7.83.52,25,25,0,0,1-8.48-2.52,23.94,23.94,0,0,1-11.45-12.49,23.53,23.53,0,0,1-1.68-8.93,33.56,33.56,0,0,1,3-13.79,28.38,28.38,0,0,1,8.42-10.93,36.16,36.16,0,0,0-12.3-2.46,13.35,13.35,0,0,0-4.92.78C117,422.89,115.62,423.37,114.15,423.8Zm50.22,1.68a12.22,12.22,0,0,0-3.63-.77c-1.29-.09-2.67-.13-4.14-.13q3.1,1,5.76,1.87a15,15,0,0,0,4.47.84h.25a3.16,3.16,0,0,0-1.16-1.1A9.25,9.25,0,0,0,164.37,425.48Z" transform="translate(-102.73 -26.4)" style="fill:#f7941d"/><path d="M182.22,463.4a3.72,3.72,0,0,1-1.68,2,3.8,3.8,0,0,1-2.85.71,5.58,5.58,0,0,1-3.49-.78,4.32,4.32,0,0,1-1.29-1.94,14.22,14.22,0,0,1-.52-4.53,64.79,64.79,0,0,1,.45-7.12,69.32,69.32,0,0,1,1.49-8.34,63.85,63.85,0,0,1,2.59-8.35,25.25,25.25,0,0,0-3.37-.78,8,8,0,0,0-2.33.26,2.52,2.52,0,0,0-1.1.65,3.14,3.14,0,0,0-.45.71c-.08.22-.17.28-.26.19s-.28-.17-.32-.51a1.84,1.84,0,0,1,.19-1,4.61,4.61,0,0,1,3.89-1.87,13.09,13.09,0,0,1,4.52.58,39.35,39.35,0,0,1,3.18-5.44,13.51,13.51,0,0,1,4.72-4.27,3.48,3.48,0,0,1,4,.45,7.78,7.78,0,0,1,2.33,3.89,13.77,13.77,0,0,1,.39,5,5.07,5.07,0,0,1-1.81,3.75,5.23,5.23,0,0,1-2.85,1.1,12.43,12.43,0,0,1-2.85-.19q-1.81,5.82-2.91,10.61a57,57,0,0,0-1.36,8.15c.17.69.35.57.52-.39a12,12,0,0,1,.39-1.81,14,14,0,0,1,.52-1.55l.51-1.55a8.82,8.82,0,0,1,2.33-3.69,13.5,13.5,0,0,1,2.72-1.88,7.43,7.43,0,0,1,3.11-.64c1.63.17,2.63.82,3,1.94a7.57,7.57,0,0,1-.13,4.14c-.26.77-.47,1.47-.64,2.07a18.82,18.82,0,0,1-.78,2.07,41.88,41.88,0,0,0-1.36,4.79,8.13,8.13,0,0,0-.19,2.59c.08.6.26,1,.51,1.1a1.86,1.86,0,0,0,.78.19,3.8,3.8,0,0,0,2.46-1.16,16.9,16.9,0,0,0,2.33-2.59,17.61,17.61,0,0,0,2.33-3.76,2.09,2.09,0,0,1,.58-.9,4.2,4.2,0,0,1,.58-.39.51.51,0,0,1,.39.13c.26.34.13,1-.39,1.94l-.77,1.55c-2.07,3.28-3.95,5.4-5.63,6.34A7.74,7.74,0,0,1,189,466a4.53,4.53,0,0,1-2.07-.52,2.77,2.77,0,0,1-.77-.52,6.85,6.85,0,0,1-1.3-1.81,7.07,7.07,0,0,1-.64-2.59,11.75,11.75,0,0,1,.38-3.68,32.3,32.3,0,0,1,1.82-5.12,14.88,14.88,0,0,1,1.16-2.33,5.78,5.78,0,0,0-1.1,1.17,6.36,6.36,0,0,0-.71,1.29,21.68,21.68,0,0,0-1.68,3.69,33.62,33.62,0,0,0-1,3.56c-.26,1.12-.45,2.07-.58,2.85A13.67,13.67,0,0,0,182.22,463.4Zm5.57-33.78a23.69,23.69,0,0,0-2.07,5.44,3,3,0,0,0,2.2-.26,2.46,2.46,0,0,0,1-1.29,4.71,4.71,0,0,0,.2-1.82c-.05-.69-.11-1.29-.2-1.81C188.69,429.11,188.31,429,187.79,429.62Z" transform="translate(-102.73 -26.4)" style="fill:#f7941d"/><path d="M210.82,458.48q-3.1,4.92-5.76,6.34a8.19,8.19,0,0,1-4.85,1.17,3.24,3.24,0,0,1-1.16-.2,3.68,3.68,0,0,1-.91-.45,3,3,0,0,1-.78-.52,7.66,7.66,0,0,1-2.13-5.43c-.13-2.42.67-5.69,2.39-9.84,1-2.41,2.09-4,3.17-4.72a2.86,2.86,0,0,1,2.79-.58,3.21,3.21,0,0,1,1.68,2.07,5.24,5.24,0,0,1,0,3.23c-1,2.85-1.81,5.18-2.33,7a30.19,30.19,0,0,0-1,4.27,3.83,3.83,0,0,0,.13,2.14,1,1,0,0,0,1,.58,3.82,3.82,0,0,0,2.65-1.16,18.88,18.88,0,0,0,2.27-2.59,29.84,29.84,0,0,0,2.33-3.76,2.09,2.09,0,0,1,.58-.9,3.68,3.68,0,0,1,.58-.39,1.14,1.14,0,0,1,.52.13q.25.25.06.84t-.45,1.23Zm-3.23-27.3a2.88,2.88,0,0,1,1.75,2.52,9.14,9.14,0,0,1-.46,4.34,9,9,0,0,1-2.46,3.81,2.65,2.65,0,0,1-4.72-1.68,9.72,9.72,0,0,1,.45-4.46,9.27,9.27,0,0,1,2.46-3.69A2.89,2.89,0,0,1,207.59,431.18Z" transform="translate(-102.73 -26.4)" style="fill:#f7941d"/><path d="M206.81,461.2a14.41,14.41,0,0,1,.52-6.73,16.69,16.69,0,0,1,2.78-5.11A14.22,14.22,0,0,1,214,446a15.05,15.05,0,0,1,3.68-1.62,7.38,7.38,0,0,1,4.21-.07,5.8,5.8,0,0,1,3.3,2.65,1.81,1.81,0,0,1-.19,2.21,3,3,0,0,1-1.75,1,1,1,0,0,1-.91-.39,1.37,1.37,0,0,1-.26-.52c-.51-1.12-1.1-1.68-1.74-1.68a2.88,2.88,0,0,0-1.94.91,11.41,11.41,0,0,0-2.79,4.4c-1.21,3-1.66,5.17-1.36,6.47a3.79,3.79,0,0,0,1.62,2.59,5.67,5.67,0,0,0,3.63.13,25.89,25.89,0,0,0,3-1.43q2-1,5.05-5.3c.34-.43.67-.5,1-.2a.82.82,0,0,1,.06,1.1,24.47,24.47,0,0,1-6.47,6.41,16.63,16.63,0,0,1-8.8,3.3,5.87,5.87,0,0,1-3.49-.45,5.2,5.2,0,0,1-1.94-1.75A6.92,6.92,0,0,1,206.81,461.2Z" transform="translate(-102.73 -26.4)" style="fill:#f7941d"/><path d="M239,451.37a14.69,14.69,0,0,0-1.56,3.68q-.78,2.54-1.68,5a36.85,36.85,0,0,1-1.88,4.33c-.64,1.25-1.36,1.88-2.13,1.88q-2.72,0-3.63-.84a4.77,4.77,0,0,1-1.29-2,14.52,14.52,0,0,1-.52-4.53,62.62,62.62,0,0,1,.46-7.12,69.23,69.23,0,0,1,1.48-8.34,67,67,0,0,1,2.59-8.35,25.47,25.47,0,0,0-3.36-.78,7.92,7.92,0,0,0-2.33.26,2.4,2.4,0,0,0-1.1.65,2.56,2.56,0,0,0-.45.71c-.09.22-.18.28-.26.19s-.28-.17-.33-.51a1.85,1.85,0,0,1,.2-1,4.51,4.51,0,0,1,3.81-1.87,14,14,0,0,1,4.6.58,39.26,39.26,0,0,1,3.17-5.44,13.6,13.6,0,0,1,4.72-4.27,3.36,3.36,0,0,1,2.91-.39,4.31,4.31,0,0,1,2,1.81,10.56,10.56,0,0,1,1.17,2.85,20.57,20.57,0,0,1,.51,2.85c0,.78,0,1.7-.06,2.78a4.81,4.81,0,0,1-1.62,3.17,5.23,5.23,0,0,1-2.85,1.1,12.34,12.34,0,0,1-2.84-.19q-1.82,5.82-2.92,10.61a56.84,56.84,0,0,0-1.35,8.15,27.75,27.75,0,0,1,3.1-8,6.45,6.45,0,0,1,5.83-3.49,4.86,4.86,0,0,1,2.84.9,6.13,6.13,0,0,1,2,2.4,6,6,0,0,1,.45,3.43,8.73,8.73,0,0,1-1.81,4,10.38,10.38,0,0,1-1.94,1.94,5.71,5.71,0,0,1-1.94.9l.51,1.56c.18.51.35,1,.52,1.55.86,1.47,1.73,2.12,2.59,1.94a5,5,0,0,0,2.72-2.2,18.39,18.39,0,0,0,1.42-2.2c.43-.78.91-1.59,1.43-2.46q.51-1.43,1.29-1.29t0,1.68c-.43.86-.93,1.79-1.49,2.78a20.76,20.76,0,0,1-1.94,2.85,14.66,14.66,0,0,1-2.33,2.33,4.85,4.85,0,0,1-2.52,1.1,4.45,4.45,0,0,1-2.91-.39,5.68,5.68,0,0,1-1.88-1.81,10.52,10.52,0,0,1-1.23-2.52c-.3-.91-.58-1.79-.84-2.66a1.66,1.66,0,0,1-1.49-1.74,2.43,2.43,0,0,1,1.1-2.27,2.67,2.67,0,0,1,2.39-.52,3.52,3.52,0,0,1,1.49,1,19.82,19.82,0,0,0,1.43-1.62,2.83,2.83,0,0,0,.51-2.39,4.26,4.26,0,0,0-.77-2,1.07,1.07,0,0,0-1.17-.39,4,4,0,0,0-1.42.91A8.15,8.15,0,0,0,239,451.37Zm.38,4.91a1.12,1.12,0,0,0,.78-.39l.26-.25a6.12,6.12,0,0,0-1,.13c-.48.08-.71.21-.71.38S239.08,456.28,239.42,456.28Zm2.33-26.66a24.66,24.66,0,0,0-2.07,5.44,2.94,2.94,0,0,0,2.2-.26,2.53,2.53,0,0,0,1-1.29,4.93,4.93,0,0,0,.19-1.82c0-.69-.11-1.29-.19-1.81C242.66,429.11,242.27,429,241.75,429.62Z" transform="translate(-102.73 -26.4)" style="fill:#f7941d"/><path d="M271.65,456.15a19.55,19.55,0,0,1-6.47,6.67,19.09,19.09,0,0,1-8.8,3.17,5.89,5.89,0,0,1-3.5-.45,5.2,5.2,0,0,1-1.94-1.75,8.38,8.38,0,0,1-1.16-2.72,11.79,11.79,0,0,1,.45-6.4,18.63,18.63,0,0,1,2.85-5.12A15.58,15.58,0,0,1,257,446a13,13,0,0,1,3.69-1.75,8.87,8.87,0,0,1,4.14-.07,4.82,4.82,0,0,1,3.36,2.66,6,6,0,0,1-.65,6.6,11.65,11.65,0,0,1-2.65,2.78,7.58,7.58,0,0,1-2.72,1.29,7.67,7.67,0,0,1-2.58.2,9.21,9.21,0,0,1-2.27-.52c-.34,2.59,0,4.16,1.1,4.72a4.69,4.69,0,0,0,3.95-.06,21.29,21.29,0,0,0,8.28-6.47c.43-.43.82-.59,1.17-.46S272.08,455.46,271.65,456.15ZM261.94,448a6.84,6.84,0,0,0-2.85,3.5q-.9,2.33-1.55,4.52a6.86,6.86,0,0,0,4-.13,5.44,5.44,0,0,0,3.37-2.45,5.25,5.25,0,0,0,.71-3.17,3.43,3.43,0,0,0-1.23-2.33A2,2,0,0,0,261.94,448Z" transform="translate(-102.73 -26.4)" style="fill:#f7941d"/><path d="M296.49,454.73a.75.75,0,0,1,.13.78,7.53,7.53,0,0,1-.39,1.16c-.25.43-.56.95-.9,1.55q-3,5.05-5.63,6.54a8.1,8.1,0,0,1-4.85,1.23,3.88,3.88,0,0,1-3.18-1.55,7.21,7.21,0,0,1-1.16-3.37,14.38,14.38,0,0,1,.19-4,26.83,26.83,0,0,1,.91-3.62c.26-.87.26-1.32,0-1.36s-.52.19-.78.71a28,28,0,0,0-2.13,7,26.32,26.32,0,0,1-.71,3.82,3.56,3.56,0,0,1-1.69,2.39,4.69,4.69,0,0,1-2.07.59,3,3,0,0,1-2.46-1.17,3.2,3.2,0,0,1-.77-1.29,17.49,17.49,0,0,1-1.49-6.28,22.15,22.15,0,0,1,1.36-8.86,8.68,8.68,0,0,1,2.26-3.43,7.22,7.22,0,0,1,2.91-1.75,3,3,0,0,1,2.34.13q.9.51.51,2.07-.64,2.71-1.16,5.18t-.78,4.14c-.17,1.12-.28,1.9-.32,2.33s0,.38.19-.13l1.68-5.05a12.38,12.38,0,0,1,2.27-4.4,10.23,10.23,0,0,1,2.78-2.33,7.11,7.11,0,0,1,4.53-.91,2.32,2.32,0,0,1,1.75,1.82q.45,1.55-.58,4.79a64.43,64.43,0,0,0-2.14,6.72,14.47,14.47,0,0,0-.52,3.69c0,.82.24,1.32.58,1.49a1.62,1.62,0,0,0,1.3,0A4.62,4.62,0,0,0,290.6,462a25.64,25.64,0,0,0,2.14-2.59,26.56,26.56,0,0,0,2.2-3.5C295.54,454.86,296.06,454.47,296.49,454.73Z" transform="translate(-102.73 -26.4)" style="fill:#f7941d"/><path d="M325.87,472.85a34.29,34.29,0,0,1-11.07-2.07,25,25,0,0,1-10.54-7.12,17.45,17.45,0,0,1-4-5.63,26.59,26.59,0,0,1-2-6.66,30.06,30.06,0,0,1,1-13.85A31.1,31.1,0,0,1,327.1,416a29.15,29.15,0,0,1,10.68,1.42,25.45,25.45,0,0,1,5.63,2.91,16.85,16.85,0,0,1,3.55,3.3,11.14,11.14,0,0,1,1.82,3.24,8.85,8.85,0,0,1,.51,2.71c0,1.47-.38,2.2-1.16,2.2H348a1.41,1.41,0,0,1-1.42-.9,15.52,15.52,0,0,1-.78-2.72,6.07,6.07,0,0,0-1.36-2.14,11.46,11.46,0,0,0-3.17-2.32,23.64,23.64,0,0,0-4.92-1.88,24.51,24.51,0,0,0-6.47-.78,22.09,22.09,0,0,0-6.92,1.17,25.59,25.59,0,0,0-6.8,3.43,27.91,27.91,0,0,0-5.76,5.43,20.82,20.82,0,0,0-3.68,7.06,27.47,27.47,0,0,0-1.17,8.21,15.31,15.31,0,0,0,2.07,8,16.68,16.68,0,0,0,8.54,7.7,29.34,29.34,0,0,0,11.13,2.27,24.79,24.79,0,0,0,6.41-.72c1.77-.47,2.91-.79,3.43-1a9.77,9.77,0,0,0,1.42-.58c.43-.21.86-.41,1.3-.58a7.87,7.87,0,0,1-.2-1.42c0-.61-.06-1.38-.06-2.33a23.44,23.44,0,0,1,.45-4.92c.3-1.38.63-2.63,1-3.75a17.42,17.42,0,0,1,1.55-3.69A16.3,16.3,0,0,1,345,442a15.63,15.63,0,0,1,3-2.46,5.69,5.69,0,0,1,3-1,3.5,3.5,0,0,1,3.49,1.88,10.46,10.46,0,0,1,1,3.95,25.37,25.37,0,0,1-.19,6.08,23.13,23.13,0,0,1-.71,3.49,20.81,20.81,0,0,1-2.14,5.7,26.59,26.59,0,0,1-3.3,4.79,3.52,3.52,0,0,0-.71.64,3.1,3.1,0,0,1-.71.65,2.12,2.12,0,0,0,.78,2.52A4.57,4.57,0,0,0,351,469a6.52,6.52,0,0,0,1.16-.13c.43-.09.65.21.65.9a1.51,1.51,0,0,1-.65,1.17,3.35,3.35,0,0,1-2.07.51,10.52,10.52,0,0,1-3.49-.58,5,5,0,0,1-2.72-2.39,25.38,25.38,0,0,1-3.11,1.55,20.52,20.52,0,0,1-2.33.78,27.09,27.09,0,0,1-5.76,1.62,32.26,32.26,0,0,1-6.66.45Zm20.19-21.35a13.42,13.42,0,0,0-.71,2.84q-.19,1.43-.33,2.85a12.85,12.85,0,0,0,1.43-2.59,23.28,23.28,0,0,0,1.35-4,39.28,39.28,0,0,0,.85-4.07h-.13A11.58,11.58,0,0,0,347,449,20.9,20.9,0,0,0,346.06,451.5Z" transform="translate(-102.73 -26.4)" style="fill:#f7941d"/><path d="M381.77,454.6c.52.17.65.52.39,1a9.1,9.1,0,0,1-2.52,2.33,14.18,14.18,0,0,1-4.08,1.94,13.79,13.79,0,0,1-3.3,4.27,7.56,7.56,0,0,1-3.69,1.81,9.7,9.7,0,0,1-4.85.06,12.68,12.68,0,0,1-2.52-1,105.49,105.49,0,0,1-3.37,10.55q-1.8,4.72-3.62,6.28a5.27,5.27,0,0,1-1.81.84,16.88,16.88,0,0,1-2.2.45,4.92,4.92,0,0,1-1.82-.06c-.51-.13-.73-.37-.64-.72a9.71,9.71,0,0,1,.77-1.68,19.19,19.19,0,0,0,.78-1.81,25.16,25.16,0,0,1,1-2.33A114.53,114.53,0,0,0,354.08,465a135.35,135.35,0,0,0,3.62-18.44,3.74,3.74,0,0,1,.91-2.07,6.4,6.4,0,0,1,5.31-2.2c.6,0,.94.15,1,.45a8.66,8.66,0,0,1,0,2.26,22.35,22.35,0,0,1-.26,3c-.17,1.21-.39,2.55-.65,4a22.85,22.85,0,0,0,.33,8.22,3.27,3.27,0,0,0,3.82,2.52,3.51,3.51,0,0,0,2.13-.9,4.15,4.15,0,0,0,1.1-1.43,7.48,7.48,0,0,1-4.66-1.29,6.32,6.32,0,0,1-2.26-3,8.74,8.74,0,0,1-.39-3.69A10.74,10.74,0,0,1,365,449a8.69,8.69,0,0,1,4.72-4.79,6.43,6.43,0,0,1,5.44.06,6.7,6.7,0,0,1,3.23,4.73q.84,3.49-1.87,9a9.4,9.4,0,0,0,2.07-1.09,11.4,11.4,0,0,0,2.2-2.14A1.32,1.32,0,0,1,381.77,454.6Zm-9.57,4.27a16.66,16.66,0,0,0,1.42-5.17,4.41,4.41,0,0,0-1.16-3.89,1.84,1.84,0,0,0-1.62-.64,2.44,2.44,0,0,0-1.49.84,6.52,6.52,0,0,0-1.1,1.68,4.46,4.46,0,0,0-.45,1.88,7.32,7.32,0,0,0,.32,2.52,4.39,4.39,0,0,0,1.49,1.75A5.15,5.15,0,0,0,372.2,458.87Z" transform="translate(-102.73 -26.4)" style="fill:#f7941d"/><path d="M393.81,458.48q-3.1,4.92-5.76,6.34A8.22,8.22,0,0,1,383.2,466a3.3,3.3,0,0,1-1.17-.2,3.61,3.61,0,0,1-.9-.45,2.69,2.69,0,0,1-.78-.52,7.62,7.62,0,0,1-2.14-5.43c-.13-2.42.67-5.69,2.4-9.84,1-2.41,2.09-4,3.17-4.72a2.85,2.85,0,0,1,2.78-.58,3.16,3.16,0,0,1,1.68,2.07,5.1,5.1,0,0,1,0,3.23q-1.55,4.27-2.33,7a31.68,31.68,0,0,0-1,4.27,3.93,3.93,0,0,0,.13,2.14,1,1,0,0,0,1,.58,3.84,3.84,0,0,0,2.66-1.16,18.82,18.82,0,0,0,2.26-2.59,28.73,28.73,0,0,0,2.33-3.76,2.18,2.18,0,0,1,.58-.9,3.72,3.72,0,0,1,.59-.39,1.07,1.07,0,0,1,.51.13c.18.17.2.45.07.84s-.28.8-.46,1.23Zm-3.24-27.3a2.88,2.88,0,0,1,1.75,2.52,9.55,9.55,0,0,1-2.91,8.15,2.65,2.65,0,0,1-4.73-1.68,9.73,9.73,0,0,1,.46-4.46A9.07,9.07,0,0,1,387.6,432,2.87,2.87,0,0,1,390.57,431.18Z" transform="translate(-102.73 -26.4)" style="fill:#f7941d"/><path d="M314.13,103.66a128.82,128.82,0,0,1,20.41,13.66,142.28,142.28,0,0,1,46,66.29,140.17,140.17,0,0,1,6.05,26.15,170.93,170.93,0,0,1,1.31,25.18q-.12,9.1.19,18.21a132.9,132.9,0,0,0,5.32,32.65A43.79,43.79,0,0,1,395.49,297a23.9,23.9,0,0,1-.2,4,11.36,11.36,0,0,1-2.9,6.11,46.06,46.06,0,0,1-9,8,1.2,1.2,0,0,0-.64,1.35,47.05,47.05,0,0,1,.37,7c-.2,4.32-1.22,8.36-4,11.82a23.22,23.22,0,0,1-9.36,6.67,43.14,43.14,0,0,1-12.4,3,19.79,19.79,0,0,0-2.41.38,5.21,5.21,0,0,0-4.05,3.55c-.38,1.16-.83,2.3-1.15,3.47-1.86,6.67-6.14,11.1-12.45,13.75a49.62,49.62,0,0,1-11.46,3c-4.32.7-8.7,1-12.94,2.15-1.08.28-2.15.61-3.22.94a9.51,9.51,0,0,0-3.78,2.2,39.37,39.37,0,0,1-8.94,5.82,81.89,81.89,0,0,1-18.35,7.36,35.1,35.1,0,0,1-12.11,1.11,17.9,17.9,0,0,1-10.15-4.17c-.94-.8-.94-.79-2-.05a45.4,45.4,0,0,1-15,7.39,29.35,29.35,0,0,1-25.3-4.4,21.19,21.19,0,0,1-4.93-5c-.9-1.24-1.8-2.47-2.72-3.7a4.67,4.67,0,0,0-5.07-1.91,34,34,0,0,1-8.07.56,16.77,16.77,0,0,1-6.86-1.87,30.62,30.62,0,0,1-8.75-6.83c-1.59-1.72-3.16-3.48-4.7-5.25a35.43,35.43,0,0,0-7.46-6.29,12.24,12.24,0,0,0-3.09-1.26c-5-1.6-10-3-14.9-4.91A35.64,35.64,0,0,1,139,346.5a22.4,22.4,0,0,1-8.76-14.9,29.5,29.5,0,0,1-.35-3.64c0-.77-.24-1-1-1.08a33.12,33.12,0,0,1-7.94-1.43,18.24,18.24,0,0,1-12.63-13.54,37.59,37.59,0,0,1-.83-12.15c.35-4.84,1.3-9.6,1.56-14.44a137,137,0,0,0,0-15.3c-.23-4.22-.63-8.44-1-12.65-.51-5.48-1-11-1.4-16.46a164.29,164.29,0,0,1-.22-19,143.4,143.4,0,0,1,17.24-61.55,139.85,139.85,0,0,1,16.45-24.06c.43-.51.89-1,1.34-1.47.55.22.66.74.79,1.23a60.15,60.15,0,0,0,2.48,7.52,2,2,0,0,1,.12,1.63,179.39,179.39,0,0,0-10.69,15.66,135.37,135.37,0,0,0-17.54,52,155.83,155.83,0,0,0-.79,24.43c.2,6.61,1,13.2,1.64,19.8.48,5,1,10,1,15.08,0,1.24.25,2.44.31,3.66.16,3.52-.29,7-.41,10.53-.3,3.81-.86,7.59-1.29,11.38a36.58,36.58,0,0,0-.08,9.75c1,6.37,4.49,9.4,11.07,9.9,3.12.24,6.2-.14,9.3-.05,1.95.05,2.28.28,2.19,2.22-.12,2.34-.28,4.67-.3,7-.07,6.84,2.92,11.7,9.12,14.61a84,84,0,0,0,11.07,4c2.63.81,5.27,1.63,7.87,2.53a27,27,0,0,1,8.7,5.6,66.52,66.52,0,0,1,7.26,7.65,27.94,27.94,0,0,0,6.77,5.91c2.32,1.45,4.84,1.43,7.4,1.15,2-.22,3.94-.43,5.93-.52,3.87-.18,6.74,1.72,9.32,4.21a17.82,17.82,0,0,1,2.78,3.45c2.9,4.69,7.21,7.23,12.52,8.24,6.94,1.05,13-1.35,18.69-4.95.73-.46,1.45-.94,2.14-1.45,2.68-1.72,4.88-4,7.27-6.07,1.62-1.4,1.81-1.41,2.82.56.72,1.4,1.37,2.84,2.14,4.22a5.72,5.72,0,0,0,1.54,1.88c2.62,2.06,5.7,2,8.77,1.87a52,52,0,0,0,13.93-4A76.28,76.28,0,0,0,298,368.84c1.77-1.19,3.17-2.87,5.11-3.85,4.67-2.38,9.72-3.36,14.82-4.13,4.34-.65,8.71-1.06,12.94-2.33a24.16,24.16,0,0,0,5.56-2.5,9.06,9.06,0,0,0,3.86-4.78c.71-2,1.24-4,2-5.94,2.1-5.26,6-8.19,11.5-9.22,3.65-.7,7.4-.85,10.92-2.23a30.36,30.36,0,0,0,4.28-2c4.17-2.39,5-6.36,4.76-10.67a67.53,67.53,0,0,0-.86-7.75c-.25-1.44,0-1.8,1.51-2.05,1.86-.3,3.73-.59,5.59-.9.33-.06.81,0,.91-.42s-.29-.73-.6-1a4.5,4.5,0,0,0-1.22-.61c-1.08-.47-1.14-.82-.18-1.57,1.6-1.26,3.08-2.66,4.65-4,2.47-2.06,2.9-4.63,2.42-7.58a91.33,91.33,0,0,0-2.32-9.5,142.05,142.05,0,0,1-4.32-23.44c-1.2-12.1-.73-24.24-.91-36.36a129.86,129.86,0,0,0-5.79-36.28A133.71,133.71,0,0,0,351.33,148a129.8,129.8,0,0,0-14.43-16.21,133.42,133.42,0,0,0-26.41-19.47,2.74,2.74,0,0,1-1.19-.91,1.18,1.18,0,0,1,.23-1c1.33-2,2.7-4.07,3.87-6.22A1,1,0,0,1,314.13,103.66Z" transform="translate(-102.73 -26.4)"/><path d="M314.13,103.66c-1.46,2.57-3,5.06-4.64,7.54-.66.39-1.2,0-1.72-.29-7-3.65-14.61-4.84-22.39-4.54a80.28,80.28,0,0,0-29.87,7.16A65.84,65.84,0,0,0,239.06,124a30.54,30.54,0,0,0-3.91,4.29,149.87,149.87,0,0,0-14.73,22.33,32.31,32.31,0,0,0-3.92,12.15,2.33,2.33,0,0,1-1.28,1c-1.2.31-2.13.84-2,2.3a5.71,5.71,0,0,0-.18,1.36c.17,4.29-.5,8.55-.33,12.84a17.55,17.55,0,0,1-1,6.3c-1.48,4.39-5.6,6-9.69,3.85a15.28,15.28,0,0,1-4.62-4A88,88,0,0,1,188.45,173c-1.59-2.85-3.14-5.73-4.61-8.64-.47-.92-.9-1.15-1.87-.78a29.84,29.84,0,0,1-11.55,1.9,25.08,25.08,0,0,1-16.17-6.36,36.47,36.47,0,0,1-9.17-12.5,2.82,2.82,0,0,1-.41-1.6c-.75-2.31-1.72-4.54-2.34-6.9-.28-1.07-.62-2.13-.93-3.2A49.64,49.64,0,0,1,140.32,123a39.28,39.28,0,0,1,6.92-21,15,15,0,0,1,2.3-2.66,113.23,113.23,0,0,1,18.74-13.67c.61-.35,1.24-.67,1.84-1a3.47,3.47,0,0,0-.55-1.46,35.38,35.38,0,0,1-3.46-19,39.28,39.28,0,0,1,6.33-17.36A58.86,58.86,0,0,1,187,31.28a22.74,22.74,0,0,1,7.1-3.1c11.22-3.49,21.73-1.76,31.57,4.49,7.27,4.62,12.95,10.84,17.79,17.88a7.33,7.33,0,0,0,1.24,1.63c1.67-1.32,3.32-2.67,5.08-3.88a42.32,42.32,0,0,1,18.29-7.24A45,45,0,0,1,288.3,43a59.9,59.9,0,0,1,19.55,10.47A31.09,31.09,0,0,1,318.53,70.7c2.05,8.24,1.34,16.38-1,24.44A72.4,72.4,0,0,1,314.13,103.66Z" transform="translate(-102.73 -26.4)" style="fill:#ed2024"/><path d="M215,163.5l1.38-.71a4.31,4.31,0,0,1,1.22-3.18A167.34,167.34,0,0,1,232,143.74c8.27-7.82,17.34-14.4,28.36-17.86a44.61,44.61,0,0,1,15.06-2.24,54.6,54.6,0,0,1,19.7,4.57,90.61,90.61,0,0,1,25.16,16.61A115.7,115.7,0,0,1,338,165.19c6.72,9.79,12,20.28,14.64,31.94,2.19,9.68,1.44,19.23-1.29,28.71a44.94,44.94,0,0,1-7,14.16c-1.58,2.18-3,4.51-4.41,6.8-2.58,4.09-2.55,8.53-2.07,13,.54,5.12,2.56,9.85,4.37,14.61a64,64,0,0,1,3.36,10.8,30.45,30.45,0,0,1-2,17.8,67.75,67.75,0,0,1-18.91,25.42c-12.47,10.72-27,17.35-42.74,21.73A108.41,108.41,0,0,1,260,353.92c-4,.27-7.95.08-11.93.05-.54,0-1.17,0-1.33-.73a2.93,2.93,0,0,1,.76-1.47c5.49-7.67,8-16.42,9.35-25.59a80.28,80.28,0,0,0,.93-14.77c-.45-10.56-2-20.89-6.94-30.43a24.22,24.22,0,0,0-4.47-6.16,17.13,17.13,0,0,1-2.4-2.56,3.21,3.21,0,0,1-.19-1.65c.93-9.14-2.29-16.82-8.47-23.35-8.42-8.92-19.08-13.19-31-14.5a58.46,58.46,0,0,0-29.24,4c-10.61,4.41-19.25,11.22-25.16,21.2a46,46,0,0,0-6.4,21.31c-.36,6.63,1,13,2.46,19.31.13.55.24,1.1.39,1.64,0,0,.06.07.14.13,1-1.69,1.93-3.43,2.8-5.2,1.56-3.15,3.6-4.34,7.12-4,6,.54,11.55,2.45,17.09,4.55a1.88,1.88,0,0,1,1,.72,2.8,2.8,0,0,1-.34,1.61,80.8,80.8,0,0,0-5,20.07,6.17,6.17,0,0,0-.19,2.18,3.06,3.06,0,0,1-.23,1.43c-.93.69-1.86.15-2.74-.1-5.07-1.4-9.93-3.36-14.84-5.24a43.89,43.89,0,0,1-14.55-8.78c-3.76-3.51-7.37-7.17-10.91-10.91-2.41-2.55-4.65-5.27-7.29-7.59-.89-.79-.44-1.66-.41-2.52.08-2,.18-4.07.24-6.11.13-4.39-.15-8.77-.42-13.15-.36-5.65-.94-11.28-1.49-16.91a188.55,188.55,0,0,1-1-28.11A134.54,134.54,0,0,1,143.76,146c.28-.36.61-.68.91-1a57.78,57.78,0,0,0,4.82,8.31c3.95,5.31,8.86,9.26,15.36,11a28.59,28.59,0,0,0,16.55-.91c.66-.22,1.37-.81,2-.56s.74,1.17,1.06,1.8a149,149,0,0,0,10.61,18.21,35.85,35.85,0,0,0,4.39,5.29,12.53,12.53,0,0,0,3.08,2.24,5.87,5.87,0,0,0,8.27-2.75,14.44,14.44,0,0,0,1.47-6c.16-3.87.19-7.75.32-11.63a13.1,13.1,0,0,1,.34-3.94A5.17,5.17,0,0,1,215,163.5Z" transform="translate(-102.73 -26.4)" style="fill:#fffefe"/><path d="M246.89,353.37a2.05,2.05,0,0,0,1.19.2c3.83,0,7.66.14,11.48,0a86.82,86.82,0,0,0,10.89-1.23,124.08,124.08,0,0,0,19.9-5.17,112.46,112.46,0,0,0,27.34-13.77,79.39,79.39,0,0,0,14.13-12.58A60.87,60.87,0,0,0,344,300.47a30.54,30.54,0,0,0,1.53-7.28c.53-5.68-.91-11-2.82-16.21-1.66-4.54-3.57-9-4.73-13.69a34.83,34.83,0,0,1-.72-10.62,12.49,12.49,0,0,1,1.64-4.89,57.62,57.62,0,0,1,5.31-8.39,44.62,44.62,0,0,0,7.37-16A58.9,58.9,0,0,0,353.39,205a58.07,58.07,0,0,0-3.09-14.72,98.49,98.49,0,0,0-10.14-21,123.85,123.85,0,0,0-13.51-17.52,103.83,103.83,0,0,0-19.6-16.7,68,68,0,0,0-21.83-9.64,54.81,54.81,0,0,0-7.67-1.16c-8.57-.77-16.55,1.29-24.24,4.83a72.42,72.42,0,0,0-16.18,10.61,110.52,110.52,0,0,0-9.11,8.6c-3.84,4.07-7.49,8.33-11,12.7-.47.59-.31,1.25-.63,1.81a11.55,11.55,0,0,1,.73-5.24,57.56,57.56,0,0,1,5.92-12.39c3-5,6.34-9.73,9.72-14.46a50.24,50.24,0,0,1,16.82-14.64,80.73,80.73,0,0,1,27.33-9.26,62.49,62.49,0,0,1,16.16-.55,39,39,0,0,1,13.77,3.8,8.65,8.65,0,0,0,2.64,1.15c3.13,1.9,6.32,3.7,9.37,5.74a133.21,133.21,0,0,1,51.68,65.36,129.68,129.68,0,0,1,7.15,28.86A133,133,0,0,1,378.88,229c0,5.41,0,10.82,0,16.22a180.78,180.78,0,0,0,.94,18.48,140.06,140.06,0,0,0,4.66,23.66,61.48,61.48,0,0,1,1.82,7.58,23.13,23.13,0,0,1,.21,3.81,3.83,3.83,0,0,1-1,2.63,41.08,41.08,0,0,1-6.29,5.79c-.24.17-.57.26-.72.69a3.69,3.69,0,0,1,3.34,2.77c-2.7.45-5.29.92-7.9,1.29-.8.12-.87.38-.72,1.09a63.88,63.88,0,0,1,.95,8,18,18,0,0,1-.26,4.57,9,9,0,0,1-4.07,6.22,25.64,25.64,0,0,1-9.61,3.7c-2.25.41-4.55.56-6.79,1a14.06,14.06,0,0,0-11,9.53c-.62,1.72-1.2,3.46-1.76,5.21a9,9,0,0,1-3.95,5.06A27.66,27.66,0,0,1,326.41,360c-4,.68-8.05,1.2-12.07,1.86a45.74,45.74,0,0,0-9.52,2.7,14.2,14.2,0,0,0-4.58,3,15.11,15.11,0,0,1-2.64,2.08,79,79,0,0,1-20.55,9.19,28.84,28.84,0,0,1-5.68,1,38.66,38.66,0,0,1-5.24-.56c-1.38-.36-2.59-1.08-3.91-1.55a5.83,5.83,0,0,1-1.89-2.5c-.87-1.66-1.7-3.34-2.57-5.05-.62.11-.94.6-1.34,1-2.05,1.81-4.05,3.68-6.2,5.38-.31.24-.55.6-1,.64a70.87,70.87,0,0,1-9.4,4.36A31.8,31.8,0,0,1,228,383.85a20.68,20.68,0,0,1-8.76-3.71,13.54,13.54,0,0,1-3.1-3.35,47.26,47.26,0,0,0-3.35-4.37,18.11,18.11,0,0,0-3.38-2.85c-2.88-1.91-6.06-1.83-9.3-1.44-1.61.19-3.22.42-4.85.5a9.85,9.85,0,0,1-5.93-1.66,29.66,29.66,0,0,1-6.14-5.48q-1.89-2.1-3.76-4.23a43.36,43.36,0,0,0-8.86-7.46,26,26,0,0,0-6.32-2.6c-4.83-1.58-9.74-2.91-14.43-4.88a26.37,26.37,0,0,1-4.58-2.42,13.53,13.53,0,0,1-6.05-9.5,37.64,37.64,0,0,1-.15-9c.08-.91.11-1.83.21-2.74.07-.71-.1-1-.9-1-1.68.13-3.37.14-5.05.24a29.54,29.54,0,0,1-8.79-.77c-4.31-1.09-6.78-3.89-7.66-8.19a35.7,35.7,0,0,1-.22-10.82c.36-3.59,1.09-7.15,1.19-10.78a3.63,3.63,0,0,1,.21-.88c-.18,1.31.55,2.05,1.43,2.94,3.06,3.06,5.93,6.3,8.94,9.41,2.51,2.6,5,5.2,7.69,7.64,2.85,2.61,5.77,5.21,9.32,6.84a138.37,138.37,0,0,0,20.94,7.91c.74.2,1.48.35,2.23.52a7.71,7.71,0,0,1,.67,3.54,24,24,0,0,0,19.42,21.93,20.73,20.73,0,0,0,17.09-4.3c2.79-2.15,2.57-2.4,4,1a38,38,0,0,0,8,12c3.48,3.42,7.52,5.83,12.5,6.08a16.07,16.07,0,0,0,9.15-2.56,31.39,31.39,0,0,0,6.16-5.22C246,353.85,246.16,353.17,246.89,353.37Z" transform="translate(-102.73 -26.4)" style="fill:#b3b2b3"/><path d="M204.53,182.62A5.32,5.32,0,0,1,202.8,181a91.6,91.6,0,0,1-6.86-10.44c-2.77-4.81-5.19-9.81-7.67-14.78-.28-.54-.52-1.1-.76-1.66-.5-1.22-.54-1.25-1.78-.63a50.34,50.34,0,0,1-7.71,3.29,22,22,0,0,1-11.3.46,16.14,16.14,0,0,1-7.09-3.72c-5.31-4.54-8.17-10.5-10.16-17a39.23,39.23,0,0,1-1.65-7.72,39.93,39.93,0,0,1,.11-8.53,31.21,31.21,0,0,1,1.92-7.65c1.33-3.38,3-6.61,5.86-9,2.07-1.71,4.19-3.38,6.33-5a96.38,96.38,0,0,1,9.07-6.16,19.57,19.57,0,0,1,3.28-1.54c0-.16,0-.3,0-.34-1.07-.9-1.09-.92,0-1.75,1.56-1.13,3.15-2.21,4.77-3.35-.6-1-1.16-2.06-1.77-3a28,28,0,0,1-3.87-10.83,18.5,18.5,0,0,1-.23-5.43,51.71,51.71,0,0,1,.81-5.4,33.44,33.44,0,0,1,4.15-9.46A52.32,52.32,0,0,1,187,40.77a37,37,0,0,1,4-3.3,18.74,18.74,0,0,1,6-2.5,35.06,35.06,0,0,1,6.13-1c6.5-.57,12.31,1.27,17.83,4.51a46.9,46.9,0,0,1,11.12,9.45,59.55,59.55,0,0,1,10,15.07c.7,1.55.76,1.53,2,.28.9-.9,1.74-1.85,2.59-2.8a28.79,28.79,0,0,1,3.59-3.3,43.24,43.24,0,0,1,7.3-5,34.1,34.1,0,0,1,12.1-3.86c1.63-.17,3.24-.23,4.87-.25a33.82,33.82,0,0,1,9.6,1.38,50,50,0,0,1,10.35,4.06,55.09,55.09,0,0,1,9.86,6.6,21.26,21.26,0,0,1,4.07,5.12,27.41,27.41,0,0,1,3.72,11.49,40.11,40.11,0,0,1,.26,4.1,41.1,41.1,0,0,1-1.73,11.39,45,45,0,0,1-3.44,8.79c-.39.74-.75.92-1.52.63a45.46,45.46,0,0,0-9.58-2.35,16.67,16.67,0,0,0-4.4-.39c-1.23.15-2.4-.37-3.63-.32-2.84.12-5.67.35-8.5.58a75.66,75.66,0,0,0-12.71,2.24,91.75,91.75,0,0,0-14.5,5.1,80.85,80.85,0,0,0-12.47,7,52.74,52.74,0,0,0-10.08,9.07,101.15,101.15,0,0,0-6.57,8.77q-3.72,5.31-7,10.88A79.25,79.25,0,0,0,210.51,154a7.83,7.83,0,0,0-.36,1.32,2.2,2.2,0,0,1-1.42,1.81,4.1,4.1,0,0,0-2.21,2.77,26.19,26.19,0,0,0-1,5.06c-.43,3.61-.05,7.23-.32,10.83-.15,2-.22,4-.25,5.94A.93.93,0,0,1,204.53,182.62Z" transform="translate(-102.73 -26.4)" style="fill:#bf2026"/><path d="M215,163.5a15,15,0,0,1-2.1,2.47C212.85,164.1,212.72,164.21,215,163.5Z" transform="translate(-102.73 -26.4)" style="fill:#bbb1ae"/><path d="M174.3,296.41c-5.64-2.19-11.33-4.23-17.42-4.86a12,12,0,0,0-3.79.26,4,4,0,0,0-2.8,2.16c-1.12,2.23-2.3,4.44-3.45,6.65l-.52.95a14.78,14.78,0,0,1-.87-3.31,103.18,103.18,0,0,1-2.12-10.78c-1.41-12.4,1.4-23.7,8.83-33.75a52.26,52.26,0,0,1,28.39-19.34,58.52,58.52,0,0,1,40.34,2.31,41.35,41.35,0,0,1,17.73,13.84,29.32,29.32,0,0,1,5.79,18c0,1.22-.18,2.44-.27,3.66.18,2.33-.68,4.42-1.51,6.52-4.67,11-13.46,17.53-24.23,21.75a53.5,53.5,0,0,1-20.81,3.64,22.7,22.7,0,0,1-6.45-1.08c-3.7-1.17-7.32-2.56-10.94-4-1.43-.64-2.93-1.11-4.38-1.73C175.27,297.11,174.64,297,174.3,296.41Z" transform="translate(-102.73 -26.4)" style="fill:#8e191b"/><path d="M174.3,296.41a46.22,46.22,0,0,1,5.9,2.36c.27,1-.27,1.78-.58,2.63-2.56,7-4.47,14.14-4.2,21.63.26,7.66,3.5,13.61,10.79,16.91a15.22,15.22,0,0,0,16.49-2.83c2.87-2.68,4.57-6.1,6.59-9.33.19-.31.32-.64.53-.93s.6-.94,1.18-.8.59.68.68,1.12c.44,1.94.84,3.89,1.24,5.84a37.77,37.77,0,0,0,8.52,17.55,16.78,16.78,0,0,0,5.31,4.07c3.5,1.72,6.83,1.16,10-1a26.09,26.09,0,0,0,8.45-10.1,59,59,0,0,0,5.61-19.6,82.3,82.3,0,0,0,.59-14,68.81,68.81,0,0,0-5.09-24,25.3,25.3,0,0,0-3.29-5.49c-.41-.55-1-1.07-.69-1.89a26.45,26.45,0,0,0,1.57-5.51,6.14,6.14,0,0,1,.27-.86c4.19,3.1,6.83,7.36,8.76,12.08a67.15,67.15,0,0,1,4.47,17.07,90.06,90.06,0,0,1,.8,14c-.29,9.58-1.67,18.95-5.42,27.85a41.82,41.82,0,0,1-5.37,9.39c-.18.24-.32.5-.49.76a40.69,40.69,0,0,1-5,4.88,18.57,18.57,0,0,1-9.28,4,15.84,15.84,0,0,1-8.61-1.48,24.5,24.5,0,0,1-8.31-6.61,42.74,42.74,0,0,1-6.76-11.22,4.4,4.4,0,0,0-.73-1.49,6.86,6.86,0,0,0-1.53,1.25,22.25,22.25,0,0,1-28.45.27,24.45,24.45,0,0,1-9.4-17.85c-.1-1.12-.18-2.24-.26-3.35a5.79,5.79,0,0,0,.09-1.61c.19-.64-.05-1.32.14-2A76,76,0,0,1,174.3,296.41Z" transform="translate(-102.73 -26.4)" style="fill:#ed2024"/><path d="M295,207.38c-.24,7.33-3.88,14.7-11.62,19.7a23.32,23.32,0,0,1-29.64-3.61c-10.51-10.83-9.32-28.85,2.5-38.07a23.63,23.63,0,0,1,33.91,5C293.41,195,295,200,295,207.38Z" transform="translate(-102.73 -26.4)" style="fill:#febf10"/><path d="M121.94,201.91c.4-8.59,4.75-16.48,14-21.18,9.87-5,22-2,29,6.92a26,26,0,0,1-1.32,33.42,23.68,23.68,0,0,1-37-2.59C123.49,214,121.93,209,121.94,201.91Z" transform="translate(-102.73 -26.4)" style="fill:#febf10"/><path d="M168.76,318.19a3.62,3.62,0,0,1-.14,2A3.07,3.07,0,0,1,168.76,318.19Z" transform="translate(-102.73 -26.4)" style="fill:#b3b2b3"/><path d="M150,285.78a3.72,3.72,0,0,1-.38-1.65,40.12,40.12,0,0,1,8.1-26.77A46,46,0,0,1,178,242.21a53.5,53.5,0,0,1,15.72-3.49,52,52,0,0,1,21.89,3A38.46,38.46,0,0,1,230.39,251a25,25,0,0,1,6.73,11.63,21.81,21.81,0,0,1-2.64,16.89A32.36,32.36,0,0,1,222,291.14a47.9,47.9,0,0,1-17,5.57c-1.67.23-3.34.26-5,.47a16.59,16.59,0,0,1-7.21-1c-4.95-1.58-9.74-3.57-14.59-5.42a107.72,107.72,0,0,0-15.38-5,32.74,32.74,0,0,0-9.1-.8C152.41,285.1,151.23,285.59,150,285.78Z" transform="translate(-102.73 -26.4)" style="fill:#f57e20"/><path d="M242.3,278.58c.08.83.75,1.33,1.21,1.9a26,26,0,0,1,4,7.5,63.72,63.72,0,0,1,3.41,13.39c.23,1.91.38,3.83.63,5.73a74.78,74.78,0,0,1,.22,8.85,69.25,69.25,0,0,1-.82,9.53,62.92,62.92,0,0,1-3.19,13.13,33.25,33.25,0,0,1-8.51,13.57,14.2,14.2,0,0,1-6.27,3.6,9.59,9.59,0,0,1-7.43-1.33c-3.58-2.08-6-5.24-8.14-8.69A43.58,43.58,0,0,1,212,330.65a30.37,30.37,0,0,0-1-4.55c-1,.81-1.27,2-1.9,2.86-.84,1.21-1.49,2.54-2.25,3.8a19,19,0,0,1-6.93,7,14.51,14.51,0,0,1-11.05,1.5,17.16,17.16,0,0,1-12.39-11,25.21,25.21,0,0,1-1.25-12,72.14,72.14,0,0,1,1.61-9.27,75.69,75.69,0,0,1,3.41-10.26,46.64,46.64,0,0,1,5,1.79,61.91,61.91,0,0,0,9.45,2.93,9.92,9.92,0,0,0,1.8.2,54,54,0,0,0,22.78-3.93,46,46,0,0,0,11.41-6.4c5-3.9,9.19-8.61,11.54-14.67C242.21,278.65,242.26,278.62,242.3,278.58Z" transform="translate(-102.73 -26.4)" style="fill:#bf2025"/><path d="M266.27,190c9.83-3.2,19.37,4.43,19.87,14.62a16.38,16.38,0,0,1-5,13.12,14.64,14.64,0,0,1-21.58-1,16.73,16.73,0,0,1-3.47-15.6,1.11,1.11,0,0,1,.32-.66c.57-.06.94.34,1.36.61,4.92,3.24,9.35-1.07,9.57-5.13a8.3,8.3,0,0,0-.81-4.6A1.51,1.51,0,0,1,266.27,190Z" transform="translate(-102.73 -26.4)"/><path d="M266.27,190a9.26,9.26,0,0,1,1.47,6.1c-.26,2.5-2.09,5.9-5.75,6.46a5.82,5.82,0,0,1-4.18-1c-.5-.33-.95-.75-1.43-1.12a8.89,8.89,0,0,1-1.84-6.14,7.61,7.61,0,0,1,3.06-5.73,6,6,0,0,1,7.59.36C265.57,189.23,265.91,189.61,266.27,190Z" transform="translate(-102.73 -26.4)" style="fill:#fff"/><path d="M141.32,188.07c5.94-1.77,11.2-.58,15.57,3.86a17,17,0,0,1-1.38,24.64,14.56,14.56,0,0,1-19.62-.85c-4.8-4.76-6.12-10.51-4.34-17,.44-.16.78.12,1.13.3,3.11,1.68,5.8,1.44,7.95-.7a7.22,7.22,0,0,0,1.23-8.58C141.59,189.22,141.11,188.75,141.32,188.07Z" transform="translate(-102.73 -26.4)"/><path d="M141.32,188.07a8.75,8.75,0,0,1,1.82,5.69,7.06,7.06,0,0,1-7.65,6.79,7.15,7.15,0,0,1-5.85-9.45c1.31-4.84,7.1-7.18,11.2-3.41C141,187.83,141.16,187.94,141.32,188.07Z" transform="translate(-102.73 -26.4)" style="fill:#fff"/></svg>