<?xml version="1.0" standalone="no"?>
<!DOCTYPE svg PUBLIC "-//W3C//DTD SVG 20010904//EN"
 "http://www.w3.org/TR/2001/REC-SVG-20010904/DTD/svg10.dtd">
<svg version="1.0" xmlns="http://www.w3.org/2000/svg"
 width="512.000000pt" height="512.000000pt" viewBox="0 0 512.000000 512.000000"
 preserveAspectRatio="xMidYMid meet">
<metadata>
Created by potrace 1.11, written by Peter Selinger 2001-2013
</metadata>
<g transform="translate(0.000000,512.000000) scale(0.100000,-0.100000)"
fill="#000000" stroke="none">
<path d="M1944 5105 c-87 -19 -120 -38 -195 -115 -46 -46 -79 -92 -105 -145
-33 -67 -38 -88 -42 -163 -3 -70 0 -99 17 -146 11 -33 20 -60 18 -60 -1 -1
-40 -27 -87 -58 -114 -76 -157 -120 -194 -198 -28 -60 -31 -75 -33 -180 l-2
-114 -64 -86 c-254 -339 -347 -703 -303 -1178 19 -202 21 -385 5 -501 -14
-102 -1 -188 37 -242 30 -44 112 -89 161 -89 19 0 35 -6 37 -12 2 -7 9 -35 15
-63 27 -113 88 -163 270 -222 l116 -38 95 -92 c121 -118 141 -128 248 -127
l82 2 38 -48 c68 -88 176 -138 276 -127 61 6 151 39 200 72 l36 24 47 -24
c107 -57 316 -9 486 112 63 44 80 50 196 69 122 19 179 37 231 75 38 28 48 43
93 151 15 33 21 37 64 43 132 18 239 78 270 152 7 18 13 62 13 98 l0 66 64 62
c93 89 94 106 32 362 -25 100 -28 136 -36 405 -6 187 -15 328 -25 385 -79 449
-329 826 -708 1068 -59 38 -76 54 -71 66 65 149 69 303 8 422 -51 101 -205
203 -356 235 -128 28 -258 2 -367 -73 l-54 -37 -26 34 c-142 189 -317 273
-487 235z m1111 -880 c121 -32 297 -148 439 -291 196 -195 326 -432 393 -714
21 -92 25 -140 33 -400 9 -306 19 -387 65 -566 14 -53 25 -106 25 -117 0 -12
-20 -39 -45 -63 -34 -32 -42 -43 -30 -48 25 -9 17 -26 -14 -26 -56 0 -58 -3
-53 -95 4 -82 4 -85 -25 -114 -29 -29 -113 -61 -160 -61 -32 0 -93 -26 -120
-52 -12 -11 -34 -52 -49 -91 -25 -66 -29 -70 -78 -92 -28 -13 -96 -30 -151
-39 -120 -18 -176 -37 -217 -72 -68 -56 -255 -134 -323 -134 -57 0 -103 24
-122 64 -9 20 -20 36 -23 36 -4 0 -24 -15 -46 -34 -62 -52 -160 -99 -220 -104
-97 -8 -118 1 -205 90 l-79 81 -78 -6 c-98 -8 -113 -1 -214 103 -86 88 -111
103 -250 149 -105 35 -150 60 -182 104 -17 24 -21 43 -21 113 l0 84 -75 0
c-51 0 -86 6 -110 18 -58 29 -62 46 -54 227 9 204 7 270 -12 485 -35 371 11
638 155 917 52 100 138 232 151 233 3 0 22 -28 44 -61 43 -68 110 -122 173
-140 41 -11 146 -8 189 6 19 6 27 -4 64 -72 93 -170 161 -242 215 -229 38 10
52 50 58 171 5 94 9 112 27 127 11 9 20 23 20 32 0 63 145 303 240 396 151
150 465 237 665 185z"/>
<path d="M1342 3352 c-9 -7 -10 -15 -3 -35 13 -32 -3 -83 -29 -97 -24 -13 -67
-13 -75 0 -15 24 -25 6 -25 -42 1 -130 118 -218 228 -172 110 46 146 193 70
290 -37 46 -131 78 -166 56z"/>
<path d="M2718 3333 c-14 -4 -16 -12 -12 -46 10 -73 -47 -119 -106 -87 -16 9
-21 6 -26 -15 -23 -94 69 -215 165 -215 60 0 126 43 155 100 52 101 -4 230
-111 259 -21 6 -40 10 -43 10 -3 -1 -13 -3 -22 -6z"/>
<path d="M1852 2860 c-294 -46 -502 -261 -506 -525 -1 -71 22 -225 33 -225 3
0 17 21 31 48 22 41 30 47 60 50 39 4 125 -13 181 -35 l35 -14 -22 -67 c-31
-93 -46 -220 -33 -282 39 -183 250 -277 390 -175 18 14 34 25 36 25 1 0 14
-23 28 -50 55 -108 136 -170 222 -170 80 1 133 36 197 130 93 138 127 418 75
625 -18 75 -62 166 -95 200 -26 26 -31 38 -32 85 -5 206 -203 366 -475 384
-40 3 -96 1 -125 -4z m116 -77 c-10 -2 -28 -2 -40 0 -13 2 -5 4 17 4 22 1 32
-1 23 -4z m-95 -10 c-7 -2 -21 -2 -30 0 -10 3 -4 5 12 5 17 0 24 -2 18 -5z
m180 0 c-7 -2 -21 -2 -30 0 -10 3 -4 5 12 5 17 0 24 -2 18 -5z m-284 -22
c-126 -40 -229 -123 -288 -231 -32 -57 -43 -63 -15 -7 32 63 92 133 146 170
59 41 161 87 193 86 11 0 -5 -8 -36 -18z m328 13 c-3 -3 -12 -4 -19 -1 -8 3
-5 6 6 6 11 1 17 -2 13 -5z m96 -35 c65 -33 115 -77 143 -125 15 -25 24 -47
22 -50 -3 -2 -11 8 -17 24 -17 41 -97 115 -156 146 -27 14 -46 25 -42 26 4 0
27 -10 50 -21z m174 -211 c-3 -8 -6 -5 -6 6 -1 11 2 17 5 13 3 -3 4 -12 1 -19z
m-920 -80 c-3 -8 -6 -5 -6 6 -1 11 2 17 5 13 3 -3 4 -12 1 -19z m920 -30 c-3
-8 -6 -5 -6 6 -1 11 2 17 5 13 3 -3 4 -12 1 -19z m-930 -20 c-3 -7 -5 -2 -5
12 0 14 2 19 5 13 2 -7 2 -19 0 -25z m913 -29 c-20 -37 -92 -110 -124 -125
-17 -8 -22 -9 -12 -2 43 28 104 89 121 122 11 19 21 34 23 31 2 -2 -2 -13 -8
-26z m-862 -62 c68 3 58 -4 -15 -10 l-53 -4 2 41 c1 40 1 40 5 6 l4 -35 57 2z
m89 -13 c-3 -3 -12 -4 -19 -1 -8 3 -5 6 6 6 11 1 17 -2 13 -5z m40 -10 c-3 -3
-12 -4 -19 -1 -8 3 -5 6 6 6 11 1 17 -2 13 -5z m103 -34 c8 -5 11 -10 5 -10
-5 0 -17 5 -25 10 -8 5 -10 10 -5 10 6 0 17 -5 25 -10z m50 -20 c8 -5 11 -10
5 -10 -5 0 -17 5 -25 10 -8 5 -10 10 -5 10 6 0 17 -5 25 -10z m80 -32 c10 -6
7 -7 -10 -2 -14 3 -32 11 -40 16 -10 6 -7 7 10 2 14 -3 32 -11 40 -16z m310
12 c-8 -5 -19 -10 -25 -10 -5 0 -3 5 5 10 8 5 20 10 25 10 6 0 3 -5 -5 -10z
m-77 -27 c-7 -2 -19 -2 -25 0 -7 3 -2 5 12 5 14 0 19 -2 13 -5z m-150 -10 c-7
-2 -19 -2 -25 0 -7 3 -2 5 12 5 14 0 19 -2 13 -5z m90 0 c-13 -2 -33 -2 -45 0
-13 2 -3 4 22 4 25 0 35 -2 23 -4z"/>
<path d="M1370 925 c-32 -10 -55 -12 -85 -5 -60 14 -177 12 -223 -4 -85 -30
-142 -85 -142 -138 0 -34 36 -87 68 -99 18 -8 39 -8 65 -1 34 8 37 8 31 -7
-40 -97 -46 -219 -13 -306 27 -72 104 -156 176 -191 80 -39 190 -45 276 -14
34 12 73 30 87 39 22 15 56 17 280 15 185 -1 265 2 293 11 32 11 43 11 68 -2
20 -10 44 -13 72 -9 50 7 43 7 181 2 77 -3 121 -1 149 9 34 12 43 12 62 -1 12
-8 35 -14 51 -14 16 0 60 0 98 1 70 0 125 16 158 45 15 15 20 13 50 -16 18
-18 62 -46 98 -63 56 -27 79 -32 160 -35 53 -2 111 0 131 6 35 9 35 9 35 -23
0 -73 70 -118 151 -96 59 16 92 46 124 114 26 55 32 61 78 77 41 14 53 14 73
4 34 -20 86 -17 135 7 75 36 152 152 138 208 -8 31 -43 71 -62 71 -17 0 -17 3
6 42 32 54 36 100 13 150 -24 54 -75 83 -128 73 -42 -7 -98 -61 -113 -108
l-11 -34 -63 9 c-34 5 -71 9 -82 10 -44 1 -61 17 -62 60 -3 56 -47 125 -107
165 -200 135 -490 44 -598 -187 l-30 -65 -47 2 c-25 2 -60 5 -78 9 -18 3 -47
1 -64 -5 -22 -8 -43 -8 -74 0 -40 10 -74 6 -126 -15 -14 -6 -15 -1 -9 37 14
95 -34 185 -111 209 -32 9 -44 8 -84 -12 -25 -12 -58 -37 -73 -56 -15 -19 -36
-34 -48 -34 -12 0 -37 -11 -57 -24 l-35 -24 -28 29 c-35 37 -82 46 -125 25
-39 -20 -39 -19 -39 -1 0 25 -60 84 -97 94 -25 7 -46 6 -72 -3 -36 -12 -39
-11 -74 19 -20 18 -60 39 -88 48 -63 21 -196 21 -259 2z m261 -106 c63 -32 78
-67 58 -139 -2 -9 4 -16 16 -17 14 -2 28 10 50 44 39 61 79 78 106 44 22 -27
26 -100 7 -119 -7 -7 -24 -12 -40 -12 -25 0 -29 -5 -42 -52 -39 -140 -42 -158
-27 -158 5 0 12 16 16 36 8 48 45 84 85 84 43 0 47 -20 22 -99 -27 -83 -28
-101 -3 -101 26 0 37 18 45 74 7 57 44 129 68 134 34 6 38 -30 14 -108 -24
-74 -24 -100 -2 -100 25 0 38 19 42 61 10 85 63 142 135 143 47 1 74 -23 51
-46 -9 -9 -15 -8 -26 7 -14 19 -14 19 -36 0 -25 -23 -50 -77 -50 -109 0 -53
53 -61 104 -16 28 25 35 39 41 86 7 55 26 140 41 178 7 17 3 19 -40 14 -33 -4
-45 -3 -37 5 6 6 27 10 48 9 35 -2 41 2 65 41 61 96 128 82 128 -27 0 -39 -15
-56 -51 -56 -29 0 -34 -9 -59 -110 -6 -25 -13 -53 -16 -62 -3 -10 -1 -18 4
-18 6 0 12 11 16 23 18 72 89 102 122 52 20 -31 12 -68 -23 -101 -23 -21 -25
-27 -15 -49 22 -47 62 -22 68 41 9 98 128 180 186 127 44 -40 -7 -123 -76
-123 -29 0 -36 -4 -36 -19 0 -27 26 -44 54 -37 47 12 82 52 95 109 6 30 20 61
29 69 23 20 50 29 57 18 5 -8 -7 -75 -21 -122 -3 -10 -1 -18 4 -18 5 0 14 19
21 41 15 51 52 89 86 89 38 0 41 -23 15 -106 -17 -55 -21 -77 -12 -86 16 -16
38 -4 72 43 34 48 40 43 9 -7 -27 -45 -56 -64 -96 -64 -44 0 -59 35 -45 100 6
25 8 47 6 50 -9 8 -23 -25 -35 -80 -13 -63 -24 -80 -50 -80 -21 0 -39 28 -39
59 0 25 -13 27 -31 5 -39 -48 -158 -72 -178 -37 -9 17 -10 17 -28 0 -11 -9
-33 -17 -50 -17 -27 0 -34 6 -52 45 -24 52 -36 56 -44 17 -3 -16 -14 -39 -25
-52 -19 -23 -20 -23 -46 -7 -16 11 -26 27 -26 42 l0 25 -44 -31 c-54 -38 -127
-50 -155 -25 -16 15 -19 15 -31 1 -16 -19 -74 -20 -90 0 -10 12 -15 12 -35 -1
-13 -8 -38 -14 -57 -12 -46 4 -58 40 -35 110 9 29 15 54 13 56 -8 7 -30 -42
-46 -103 -16 -56 -19 -60 -49 -63 -56 -6 -64 11 -58 108 5 75 22 161 42 211 8
20 -34 31 -60 16 -34 -18 -127 -2 -206 36 -42 20 -83 37 -91 37 -22 0 -96 -76
-120 -124 -31 -61 -35 -152 -10 -203 59 -115 188 -144 336 -75 76 36 76 36 76
23 0 -17 -105 -80 -159 -95 -68 -20 -94 -20 -160 0 -115 34 -192 157 -177 283
8 68 49 160 87 197 16 15 29 31 29 35 0 25 -143 37 -199 18 -41 -14 -53 -3
-23 22 43 34 98 43 187 29 100 -16 117 -16 185 4 69 19 167 13 221 -15z m1879
-4 c53 -27 90 -73 90 -112 0 -34 -18 -28 -34 11 -34 82 -190 109 -295 51 -184
-102 -204 -331 -36 -418 52 -26 165 -34 220 -14 l40 14 7 66 c7 77 29 128 70
162 40 34 75 33 89 -2 22 -58 -13 -197 -63 -250 -17 -19 -19 -25 -8 -38 7 -8
23 -15 35 -15 21 0 25 9 44 88 11 48 23 109 27 135 6 48 24 67 60 67 14 0 16
-7 11 -40 -6 -45 4 -52 21 -16 13 28 59 46 89 35 41 -15 52 -69 28 -131 -4
-10 -3 -18 3 -18 6 0 18 24 27 53 23 69 41 97 65 97 30 0 33 -37 10 -104 -26
-77 -26 -106 0 -106 13 0 32 17 52 45 37 52 50 53 18 0 -29 -47 -61 -67 -102
-63 -26 2 -36 10 -48 35 -8 18 -19 33 -25 33 -5 0 -22 -15 -37 -34 -29 -37
-74 -51 -113 -36 -23 9 -25 6 -35 -31 -17 -62 -49 -133 -67 -146 -9 -7 -28
-13 -41 -13 -19 0 -23 4 -17 18 4 9 16 38 26 65 l19 47 -34 0 c-19 0 -41 7
-49 15 -14 13 -20 12 -59 -5 -89 -39 -220 -35 -308 10 -114 59 -170 192 -135
325 53 201 278 310 455 220z m-48 -127 c36 -29 37 -50 6 -89 -29 -36 -58 -113
-58 -155 0 -28 -34 -38 -90 -25 -83 19 -107 52 -98 136 10 85 80 144 174 145
27 0 57 -6 66 -12z m-1398 -51 c-2 -45 -33 -83 -59 -73 -14 5 -16 15 -12 47 6
49 23 71 51 67 17 -2 21 -10 20 -41z m2004 20 c12 -64 -58 -134 -74 -73 -3 13
2 40 10 60 12 30 20 37 38 34 13 -2 24 -11 26 -21z m-2638 -67 c33 -17 83 -35
111 -41 45 -10 50 -13 45 -33 -3 -11 -6 -36 -6 -54 0 -30 -5 -35 -52 -57 -76
-34 -118 -39 -162 -21 -70 29 -80 117 -23 203 12 18 23 33 25 33 1 0 29 -14
62 -30z"/>
<path d="M1504 751 c3 -5 22 -12 42 -15 19 -4 42 -10 50 -13 8 -3 14 -1 14 5
0 12 -54 32 -87 32 -13 0 -22 -4 -19 -9z"/>
<path d="M1821 678 c-12 -35 -9 -43 14 -35 16 7 22 67 6 67 -5 0 -14 -14 -20
-32z"/>
<path d="M2411 678 c-12 -35 -9 -43 14 -35 16 7 22 67 6 67 -5 0 -14 -14 -20
-32z"/>
<path d="M2632 488 c-11 -13 -24 -35 -27 -50 -6 -25 -5 -28 19 -28 48 0 84 58
54 88 -16 16 -21 15 -46 -10z"/>
<path d="M2401 474 c-12 -15 -21 -30 -21 -35 0 -19 13 -38 22 -33 6 4 5 10 -3
16 -10 7 -8 8 8 5 29 -6 47 16 39 48 -8 32 -19 32 -45 -1z"/>
<path d="M3577 493 c-8 -15 -18 -44 -21 -63 -7 -33 -6 -34 9 -15 17 21 39 94
31 102 -2 3 -11 -8 -19 -24z"/>
<path d="M3817 472 c-22 -24 -21 -55 1 -75 33 -30 52 -16 52 38 0 54 -23 70
-53 37z"/>
<path d="M3763 401 c3 -58 32 -81 67 -53 l23 19 -32 6 c-23 5 -36 15 -46 39
l-15 33 3 -44z"/>
</g>
</svg>
